<svg width="1440" height="618" viewBox="0 0 1440 618" fill="none" xmlns="http://www.w3.org/2000/svg">
<rect y="174" width="1440" height="444" fill="#00E8E7"/>
<g clip-path="url(#clip0_0_1309)">
<path d="M553.925 140.665C551.413 151.488 548.797 162.571 546.233 173.272C545.661 175.61 545.107 177.931 544.552 180.216C540.932 182.537 526.154 192.338 513.179 205.101C493.62 224.34 483.295 244.168 483.295 262.437C483.295 302.577 523.989 312.638 532.46 314.301C532.512 325.176 532.789 337.003 533.448 348.19C533.448 348.19 517.389 367.758 521.806 398.79C526.241 429.821 568.338 423.154 568.338 423.154C578.698 431.57 590.235 438.463 601.513 442.497C624.485 450.74 709.112 480.162 719.229 517.635L719.974 518.951L720.719 517.635C730.836 480.162 815.463 450.758 838.435 442.497C849.713 438.463 861.25 431.57 871.61 423.154C871.61 423.154 913.707 429.821 918.142 398.79C922.559 367.758 906.5 348.19 906.5 348.19C907.176 336.986 907.436 325.176 907.488 314.301C915.959 312.638 956.67 302.577 956.67 262.437C956.67 244.185 946.328 224.357 926.786 205.101C913.828 192.338 899.034 182.537 895.413 180.216C894.859 177.931 894.304 175.61 893.733 173.272C891.169 162.588 888.553 151.488 886.041 140.682C900.212 135.626 919.874 126.032 919.874 107.382C919.874 101.91 919.285 97.1302 918.332 92.9395C914.192 74.8434 903.139 68.263 903.139 68.263L890.302 8.19085C889.8 5.80113 888.483 3.74042 886.699 2.28581C884.897 0.831192 882.628 -0.017334 880.185 -0.017334C873.55 -0.017334 868.63 6.13015 870.068 12.6066L883.425 72.1073C883.425 72.1073 875.335 79.6575 881.814 89.3895C888.276 99.1043 886.491 107.018 886.491 107.018C883.598 107.018 880.982 107.261 878.591 107.711C874.971 90.9827 872.372 77.6834 871.922 71.9515C870.12 48.9201 851.41 27.3433 830.518 17.9922C816.485 11.7062 771.391 7.35964 743.309 5.19504C727.77 4.00017 712.161 4.00017 696.621 5.19504C668.539 7.35964 623.445 11.6889 609.413 17.9922C588.538 27.3433 569.811 48.9201 568.009 71.9515C567.559 77.6834 564.977 90.9827 561.339 107.711C558.949 107.278 556.333 107.018 553.44 107.018C553.44 107.018 551.638 99.1043 558.117 89.3895C564.596 79.6748 556.506 72.1073 556.506 72.1073L569.897 12.624C571.352 6.14746 566.415 -1.71367e-05 559.78 -1.71367e-05C557.337 -1.71367e-05 555.068 0.848509 553.266 2.30312C551.482 3.75774 550.165 5.81844 549.663 8.20817L536.826 68.2803C536.826 68.2803 525.791 74.8607 521.633 92.9568C520.68 97.1302 520.091 101.927 520.091 107.399C520.091 126.049 539.771 135.626 553.925 140.682V140.665ZM533.136 271.961C533.136 271.961 533.015 274.749 532.876 279.511C529.844 278.334 517.406 272.446 515.518 254.696C517.267 248.376 521.875 238.28 533.69 224.669C533.292 224.998 520.871 235.63 515.552 244.739C516.314 237.189 518.723 228.063 523.591 217.101C523.001 217.967 492.304 263.32 532.72 285.936C532.616 290.507 532.53 295.997 532.478 302.058V306.508C532.478 307.755 532.478 309.002 532.478 310.283C530.659 309.989 520.16 308.067 509.801 301.867C494.868 292.914 487.28 279.65 487.28 262.454C487.28 224.859 533.638 192.234 543.201 185.914C539.511 201.187 536.133 214.902 533.708 224.703C531.369 234.176 529.914 239.977 529.914 239.977C529.914 239.977 523.435 268.03 533.153 271.996L533.136 271.961ZM524.405 385.958C526.224 367.134 530.503 358.684 533.898 354.909C535.198 372.26 537.588 387.291 541.781 393.906C545.419 399.656 549.905 405.353 554.999 410.756C554.999 410.756 539.494 408.314 536.202 401.318C536.462 401.959 540.758 412.228 557.909 413.751C558.827 414.669 559.745 415.57 560.698 416.453C560.698 416.453 521.165 419.535 524.405 385.958V385.958ZM545.367 352.9L546.267 293.815L552.469 304.067V349.662C552.469 379.343 563.002 390.149 563.002 390.149L564.613 402.547C546.267 391.222 545.367 352.9 545.367 352.9V352.9ZM564.995 357.801C559.364 348.276 562.5 335.981 572.045 330.353C574.072 329.159 576.22 328.379 578.386 327.964C577.624 328.293 576.844 328.656 576.117 329.089C567.056 334.44 564.042 346.146 569.412 355.203C574.783 364.26 586.476 367.256 595.537 361.887C596.282 361.455 596.957 360.952 597.633 360.433C596.212 362.13 594.497 363.654 592.47 364.849C582.942 370.477 570.642 367.342 565.012 357.818L564.995 357.801ZM878.384 293.815C878.384 305.244 869.115 314.491 857.699 314.491C855.274 314.491 852.969 314.058 850.804 313.279C851.67 313.4 852.536 313.487 853.42 313.487C864.282 313.487 873.1 304.673 873.1 293.815C873.1 289.849 871.922 286.178 869.912 283.078C864.23 282.732 860.99 281.71 860.99 281.71C862.792 280.81 864.819 280.1 866.967 279.546C863.433 276.204 858.686 274.143 853.437 274.143C852.554 274.143 851.687 274.212 850.821 274.333C852.987 273.572 855.291 273.139 857.716 273.139C863.104 273.139 868.007 275.217 871.679 278.593C884.343 276.654 898.791 278.801 898.791 278.801C889.627 281.953 881.658 283.027 875.439 283.182C877.309 286.299 878.401 289.919 878.401 293.815H878.384ZM851.895 281.918C856.971 282.126 860.973 286.334 860.973 291.425C860.973 296.516 856.711 300.932 851.462 300.932H851.306C838.608 300.724 816.329 300.465 802.609 300.794C796.788 300.949 790.967 300.257 785.337 298.733C777.697 296.672 767.424 293.451 761.655 289.728C759.386 288.256 760.287 284.758 762.989 284.602C779.967 283.667 830.518 281.018 851.895 281.936V281.918ZM848.794 307.945H817.386C817.386 307.945 808.447 304.88 807.373 303.807H844.082L848.812 307.945H848.794ZM845.468 327.496C847.46 328.379 849.314 329.228 851.029 330.024C855.343 332.016 858.773 333.713 861.32 335.012C864.386 336.588 865.754 340.189 864.507 343.393L864.472 343.514C863.087 347.099 858.981 348.779 855.464 347.22C851.965 345.679 847.564 343.982 842.627 342.216C840.877 341.575 839.076 340.951 837.205 340.293C816.191 333.09 788.888 325.28 779.845 322.734C809.989 331.479 827.521 341.54 837.222 348.917C839.613 350.718 841.536 352.381 843.043 353.8C846.716 357.229 848.032 359.377 848.032 359.377C846.837 358.597 845.607 357.835 844.377 357.091C842.575 356.017 840.756 354.943 838.868 353.922C806.697 336.155 762.314 325.176 719.974 318.388C653.017 307.651 591.24 307.391 591.24 307.391C598.17 300.482 672.576 304.067 672.576 304.067C664.226 300.43 610.539 298.837 588.555 298.317C583.496 298.196 579.599 293.832 580.084 288.793C580.499 284.395 584.155 281.018 588.555 280.897C638.188 279.684 682.312 283.892 719.974 290.507C778.702 300.811 821.717 316.968 845.468 327.479V327.496ZM835.559 393.664H831.089C825.684 380.711 793.115 376.486 793.115 376.486L784.835 354.372H815.151C829.045 358.597 845.745 368.451 852.328 377.888C853.316 379.308 853.784 380.919 853.784 382.495C853.784 385.577 852.034 388.555 848.933 389.889C845.728 391.257 842.038 390.374 839.699 387.793C832.579 379.897 818.859 373.853 812.31 371.291C823.224 376.693 835.542 393.681 835.542 393.681L835.559 393.664ZM598.655 387.776C596.316 390.356 592.626 391.257 589.421 389.871C586.32 388.538 584.571 385.56 584.571 382.477C584.571 380.901 585.038 379.291 586.026 377.871C592.592 368.416 609.309 358.58 623.203 354.355H653.52L645.239 376.468C645.239 376.468 612.67 380.711 607.265 393.647H602.813C602.813 393.647 615.13 376.641 626.044 371.256C619.513 373.819 605.775 379.862 598.655 387.759V387.776ZM591.154 346.701C590.132 347.185 589.04 347.445 587.931 347.445C586.909 347.445 585.887 347.22 584.934 346.804C579.287 344.328 578.923 336.466 584.293 333.471L604.147 322.422C613.467 317.227 623.948 314.353 634.619 314.214C661.904 313.833 675.902 319.253 681.48 322.197C682.624 322.803 682.416 324.518 681.134 324.812C645.62 333.453 589.785 358.978 588.902 359.377C594.584 343.185 663.671 322.145 663.671 322.145C643.385 322.145 602.622 341.142 591.154 346.683V346.701ZM817.3 398.513C817.3 398.513 819.465 406.063 802.73 402.565C785.995 399.067 741.698 393.664 719.991 393.664C698.285 393.664 653.97 399.067 637.235 402.565C620.5 406.08 622.666 398.513 622.666 398.513C642.276 398.513 655.061 388.902 655.824 388.296C648.219 393.387 623.878 390.962 623.878 390.962C625.645 386.651 652.151 383.135 652.151 383.135L665.508 345.904H645.88C645.88 345.904 670.878 336.536 719.991 338.025C769.087 336.536 794.103 345.904 794.103 345.904H774.458L787.814 383.135C787.814 383.135 814.337 386.651 816.087 390.962C816.087 390.962 791.747 393.387 784.142 388.296C784.904 388.902 797.689 398.513 817.3 398.513ZM770.196 414.964C770.196 418.392 767.424 421.18 763.994 421.18C760.564 421.18 757.775 418.392 757.775 414.964C757.775 411.535 760.547 408.764 763.994 408.764C767.441 408.764 770.196 411.535 770.196 414.964ZM748.437 411.518C748.437 414.946 745.665 417.734 742.235 417.734C738.805 417.734 736.016 414.946 736.016 411.518C736.016 408.089 738.805 405.318 742.235 405.318C745.665 405.318 748.437 408.089 748.437 411.518ZM726.193 408.764C726.193 412.193 723.421 414.964 719.974 414.964C716.527 414.964 713.755 412.193 713.755 408.764C713.755 405.335 716.527 402.547 719.974 402.547C723.421 402.547 726.193 405.335 726.193 408.764ZM703.932 411.518C703.932 414.946 701.143 417.734 697.713 417.734C694.283 417.734 691.511 414.946 691.511 411.518C691.511 408.089 694.283 405.318 697.713 405.318C701.143 405.318 703.932 408.089 703.932 411.518ZM682.173 414.964C682.173 418.392 679.402 421.18 675.954 421.18C672.507 421.18 669.752 418.392 669.752 414.964C669.752 411.535 672.524 408.764 675.954 408.764C679.384 408.764 682.173 411.535 682.173 414.964ZM719.974 456.784C726.037 445.995 823.502 407.691 823.502 407.691L828.907 412.816C828.907 412.816 721.724 454.637 719.974 463.537C718.224 454.637 611.041 412.816 611.041 412.816L616.447 407.691C616.447 407.691 713.911 445.995 719.974 456.784V456.784ZM588.001 274.16C577.139 274.16 568.321 282.957 568.321 293.832C568.321 304.707 577.121 313.504 588.001 313.504C588.884 313.504 589.768 313.418 590.617 313.296C588.468 314.076 586.147 314.509 583.704 314.509C572.288 314.509 563.02 305.244 563.02 293.832C563.02 282.42 572.288 273.156 583.704 273.156C586.13 273.156 588.451 273.589 590.617 274.351C589.75 274.23 588.884 274.16 588.001 274.16ZM571.231 316.483V323.219L564.613 329.297V311.755L571.231 316.483V316.483ZM570.019 392.33C570.019 385.023 573.812 378.564 579.616 374.633C577.866 377.715 576.827 381.3 576.827 385.109C576.827 396.608 585.922 405.942 597.113 405.942C605.065 405.942 611.942 401.214 615.268 394.374C614.194 405.387 604.493 413.994 592.695 413.994C580.17 413.994 570.019 404.296 570.019 392.33V392.33ZM768.446 458.931C739.307 467.572 719.974 494.015 719.974 494.015C719.974 494.015 700.641 467.572 671.502 458.931C642.346 450.29 584.311 419.535 584.311 419.535H598.36C598.36 419.535 644.788 443.277 669.076 449.476C693.365 455.693 719.974 479.711 719.974 479.711C719.974 479.711 746.566 455.693 770.872 449.476C795.16 443.277 841.588 419.535 841.588 419.535H855.637C855.637 419.535 797.602 450.29 768.446 458.931V458.931ZM848.76 413.994C836.962 413.994 827.261 405.387 826.187 394.374C829.513 401.214 836.373 405.942 844.325 405.942C855.533 405.942 864.611 396.608 864.611 385.109C864.611 381.282 863.589 377.715 861.839 374.633C867.643 378.564 871.419 385.023 871.419 392.33C871.419 404.296 861.268 413.994 848.76 413.994V413.994ZM859.708 367.1C856.036 367.1 852.623 365.853 849.799 363.688C851.272 364.156 852.831 364.381 854.442 364.381C864.195 364.381 872.095 355.515 872.095 344.553C872.095 337.713 869.011 331.687 864.334 328.12C871.835 330.388 877.379 338.094 877.379 347.255C877.379 358.199 869.479 367.083 859.726 367.083L859.708 367.1ZM876.946 390.131C876.946 390.131 887.479 379.343 887.479 349.644V304.049L893.681 293.798L894.581 352.883C894.581 352.883 893.681 391.205 875.335 402.53L876.946 390.131V390.131ZM915.561 385.958C918.8 419.553 879.267 416.453 879.267 416.453C880.203 415.57 881.138 414.652 882.056 413.751C899.19 412.245 903.503 401.959 903.763 401.318C900.489 408.314 884.967 410.756 884.967 410.756C890.06 405.353 894.547 399.656 898.185 393.906C902.36 387.291 904.751 372.26 906.067 354.909C909.48 358.701 913.742 367.152 915.561 385.958V385.958ZM952.72 262.419C952.72 279.615 945.15 292.88 930.199 301.833C919.857 308.032 909.341 309.954 907.522 310.249C907.522 308.984 907.522 307.72 907.522 306.474V302.023C907.47 295.962 907.366 290.473 907.28 285.901C947.696 263.285 916.981 217.933 916.409 217.067C921.277 228.028 923.686 237.154 924.448 244.704C919.112 235.596 906.691 224.963 906.31 224.634C918.125 238.245 922.715 248.341 924.482 254.662C922.594 272.411 910.156 278.282 907.124 279.477C906.985 274.714 906.864 271.926 906.864 271.926C916.583 267.978 910.104 239.908 910.104 239.908C910.104 239.908 908.648 234.106 906.31 224.634C903.884 214.833 900.506 201.118 896.816 185.844C906.379 192.165 952.738 224.79 952.738 262.385L952.72 262.419ZM874.849 11.4984C874.243 8.48524 876.287 5.55869 879.319 5.09114C879.596 5.0565 879.873 5.03919 880.133 5.03919C882.611 5.03919 884.811 6.71892 885.4 9.17791L899.727 69.7003C900.472 72.8346 898.341 75.917 895.136 76.298C895.136 69.2327 879.96 15.8449 878.782 11.7235L893.022 76.5578C890.216 76.9041 887.617 75.0339 887.063 72.2632L874.849 11.4984V11.4984ZM540.256 69.683L554.583 9.1606C555.172 6.7016 557.372 5.02187 559.849 5.02187C560.109 5.02187 560.386 5.02187 560.664 5.07382C563.713 5.54137 565.757 8.46792 565.133 11.4811L552.92 72.2459C552.365 75.0166 549.767 76.8868 546.96 76.5404L561.201 11.7235C560.023 15.8449 544.847 69.2327 544.847 76.298C541.642 75.8997 539.511 72.8173 540.256 69.7003V69.683ZM524.145 92.9568C526.016 84.5928 530.104 79.2246 532.72 76.4712C533.95 75.1897 536.029 75.1724 537.276 76.4365C537.9 77.06 538.212 77.8912 538.212 78.7051C538.212 79.3631 538.021 80.0211 537.606 80.558C533.933 85.6318 525.652 98.8272 528.822 110.966C528.822 110.966 535.301 84.6967 541.781 83.4499C548.242 82.1857 551.482 82.913 554.011 77.5102C554.011 77.5102 557.06 79.848 552.556 89.5627C548.502 98.325 535.527 119.798 556.61 128.959C558.914 129.963 561.616 130.811 564.769 131.469C564.544 131.262 560.716 127.954 557.667 124.318C555.241 121.426 553.301 118.326 554.011 116.369C554.895 113.928 555.986 111.694 560.456 111.832C564.215 111.953 570.382 113.72 580.811 118.447C580.811 118.447 577.78 113.979 570.694 110.62C570.694 100.091 580.811 71.2415 580.811 71.2415C580.811 71.2415 579.321 51.9505 596.732 34.5471C596.974 34.3047 597.252 34.0622 597.529 33.8198C597.615 33.7505 597.702 33.6813 597.789 33.612C597.997 33.4388 598.222 33.2656 598.464 33.0925C598.551 33.0232 598.638 32.9539 598.724 32.8847C599.053 32.6596 599.382 32.4171 599.729 32.192C599.764 32.1747 599.781 32.1574 599.816 32.1401C600.145 31.9323 600.491 31.7245 600.838 31.5166C600.959 31.4474 601.063 31.3954 601.184 31.3262C601.479 31.153 601.791 30.9971 602.102 30.824L602.449 30.6508C602.865 30.443 603.315 30.2352 603.748 30.0101C603.817 29.9754 603.887 29.9581 603.956 29.9235C604.354 29.7503 604.753 29.5598 605.169 29.3867C605.307 29.3174 605.463 29.2655 605.602 29.1962C605.983 29.0403 606.364 28.8845 606.745 28.7286C606.884 28.6767 607.005 28.6247 607.144 28.5728C607.663 28.365 608.183 28.1745 608.703 27.984C608.807 27.9494 608.911 27.9147 609.015 27.8801C609.465 27.7243 609.915 27.5684 610.366 27.4126C610.539 27.3606 610.712 27.2913 610.886 27.2394C611.319 27.1008 611.769 26.945 612.237 26.8065C612.375 26.7545 612.514 26.7199 612.653 26.6852C613.242 26.4948 613.848 26.3216 614.454 26.1484C614.593 26.0965 614.731 26.0618 614.87 26.0272C615.355 25.8887 615.858 25.7501 616.36 25.6116C616.55 25.5597 616.758 25.5077 616.949 25.4557C617.469 25.3172 617.971 25.1787 618.508 25.0401C618.647 25.0055 618.785 24.9709 618.907 24.9362C619.565 24.7631 620.24 24.6072 620.899 24.4341C621.072 24.3994 621.228 24.3475 621.384 24.3128C621.904 24.1916 622.441 24.0704 622.978 23.9319C623.186 23.8799 623.393 23.828 623.619 23.7933C624.208 23.6548 624.779 23.5336 625.368 23.395C625.49 23.3604 625.611 23.3431 625.749 23.3085C626.442 23.1526 627.17 22.9968 627.898 22.8582C628.088 22.8063 628.296 22.7716 628.487 22.737C629.041 22.6158 629.595 22.5119 630.167 22.3907C630.392 22.3387 630.617 22.3041 630.843 22.2694C631.484 22.1482 632.142 22.0097 632.8 21.8885C632.904 21.8885 632.991 21.8538 633.095 21.8365C633.857 21.698 634.602 21.5595 635.364 21.4209C635.572 21.3863 635.78 21.3517 636.005 21.2997C636.594 21.1958 637.166 21.0919 637.755 20.988C637.98 20.9534 638.223 20.9187 638.448 20.8668C639.175 20.7456 639.903 20.6243 640.631 20.5031C640.683 20.5031 640.752 20.5031 640.804 20.4685C641.601 20.3473 642.38 20.2261 643.177 20.0875C643.402 20.0529 643.628 20.0183 643.853 19.9836C644.459 19.8797 645.066 19.7931 645.655 19.7066C645.88 19.6719 646.105 19.6373 646.33 19.6027C647.127 19.4814 647.924 19.3775 648.738 19.2563C648.756 19.2563 648.79 19.2563 648.79 19.2563C649.57 19.1351 650.367 19.0312 651.146 18.9273C651.389 18.8927 651.631 18.858 651.857 18.8234C652.463 18.7368 653.069 18.6502 653.676 18.581C653.901 18.5463 654.143 18.529 654.368 18.4944C655.183 18.3905 655.98 18.2866 656.794 18.1827C656.863 18.1827 656.915 18.1827 656.984 18.148C657.729 18.0615 658.474 17.9749 659.219 17.871L659.947 17.7844C660.57 17.7151 661.177 17.6459 661.783 17.5593C661.991 17.542 662.216 17.5073 662.424 17.49C663.238 17.4034 664.035 17.2995 664.849 17.2129C664.971 17.2129 665.075 17.1956 665.196 17.1783C665.889 17.109 666.582 17.0224 667.257 16.9532C667.5 16.9185 667.725 16.9012 667.968 16.8666C668.591 16.8146 669.215 16.7454 669.821 16.6761C670.012 16.6761 670.22 16.6415 670.41 16.6242C671.207 16.5376 671.987 16.451 672.784 16.3817L673.217 16.3298C673.875 16.2605 674.516 16.2086 675.174 16.1393C675.4 16.122 675.642 16.0873 675.867 16.07C676.508 16.0181 677.132 15.9488 677.738 15.8969C677.894 15.8969 678.05 15.8622 678.206 15.8449C678.986 15.7756 679.765 15.7064 680.528 15.6371C680.666 15.6371 680.805 15.6025 680.943 15.6025C681.567 15.5505 682.191 15.4812 682.797 15.4293C683.022 15.4293 683.23 15.3947 683.438 15.3773C684.062 15.3254 684.685 15.2734 685.292 15.2215C685.413 15.2215 685.534 15.2042 685.655 15.1869C686.4 15.1176 687.128 15.0656 687.856 14.9964C688.011 14.9964 688.185 14.9791 688.341 14.9617C688.895 14.9098 689.449 14.8752 690.021 14.8232C690.229 14.8232 690.437 14.7886 690.645 14.7713C691.234 14.7193 691.823 14.6674 692.394 14.6327C692.498 14.6327 692.62 14.6327 692.724 14.6154C693.417 14.5635 694.075 14.5115 694.75 14.4596C694.906 14.4596 695.08 14.4422 695.236 14.4249C695.755 14.3903 696.258 14.3557 696.76 14.3037C696.933 14.3037 697.124 14.2864 697.297 14.2691C697.886 14.2171 698.458 14.1825 699.029 14.1478C699.081 14.1478 699.151 14.1478 699.203 14.1478C699.826 14.0959 700.433 14.0613 701.039 14.0266C701.212 14.0266 701.368 14.0093 701.524 13.992C701.767 13.992 702.026 13.9574 702.269 13.94C702.286 13.94 702.321 13.94 702.338 13.94C712.993 13.2474 719.974 12.953 719.974 12.953C719.974 12.953 726.956 13.2301 737.627 13.94C737.644 13.94 737.662 13.94 737.679 13.94C737.904 13.94 738.164 13.9747 738.407 13.992C738.58 13.992 738.736 14.0093 738.909 14.0266C739.498 14.0613 740.104 14.0959 740.728 14.1478C740.797 14.1478 740.867 14.1478 740.936 14.1478C741.49 14.1825 742.062 14.2344 742.634 14.2691C742.807 14.2691 742.997 14.2864 743.188 14.3037C743.69 14.3383 744.193 14.373 744.713 14.4249C744.886 14.4249 745.042 14.4422 745.198 14.4596C745.873 14.5115 746.532 14.5635 747.224 14.6154C747.346 14.6154 747.45 14.6154 747.571 14.65C748.143 14.6847 748.714 14.7366 749.303 14.7713C749.529 14.7886 749.736 14.8059 749.944 14.8232C750.499 14.8752 751.07 14.9098 751.625 14.9617C751.781 14.9617 751.937 14.9964 752.092 14.9964C752.82 15.0483 753.548 15.1176 754.293 15.1695C754.431 15.1695 754.552 15.1869 754.691 15.2042C755.297 15.2561 755.921 15.3081 756.545 15.36C756.753 15.36 756.96 15.3947 757.168 15.412C757.792 15.4639 758.398 15.5332 759.022 15.5851C759.178 15.5851 759.317 15.6198 759.472 15.6371C760.235 15.7064 760.997 15.7756 761.777 15.8449C761.932 15.8449 762.106 15.8795 762.262 15.8969C762.885 15.9488 763.492 16.0181 764.115 16.07C764.34 16.1047 764.583 16.122 764.826 16.1393C765.467 16.1912 766.108 16.2605 766.748 16.3298L767.199 16.3817C767.978 16.451 768.775 16.5376 769.555 16.6242C769.763 16.6415 769.953 16.6761 770.161 16.6761C770.768 16.7454 771.391 16.8146 772.015 16.8839C772.24 16.9012 772.483 16.9359 772.708 16.9532C773.401 17.0224 774.094 17.109 774.787 17.1783C774.908 17.1783 775.029 17.2129 775.133 17.2129C775.947 17.2995 776.744 17.4034 777.541 17.49C777.766 17.5073 777.974 17.542 778.182 17.5593C778.789 17.6285 779.395 17.6978 780.001 17.7844C780.244 17.819 780.504 17.8363 780.746 17.871C781.491 17.9576 782.236 18.0441 782.964 18.148C783.033 18.148 783.102 18.1654 783.172 18.1827C783.986 18.2866 784.783 18.3905 785.597 18.4944L786.29 18.581C786.879 18.6675 787.485 18.7541 788.092 18.8234C788.334 18.858 788.577 18.8753 788.802 18.9273C789.581 19.0312 790.361 19.1351 791.158 19.2563C791.175 19.2563 791.21 19.2563 791.227 19.2563C792.024 19.3775 792.821 19.4814 793.618 19.6027C793.843 19.6373 794.068 19.6719 794.293 19.7066C794.9 19.7931 795.489 19.8797 796.095 19.9836C796.32 20.0183 796.546 20.0529 796.771 20.0875C797.568 20.2087 798.347 20.33 799.144 20.4512C799.196 20.4512 799.265 20.4685 799.317 20.4858C800.045 20.607 800.773 20.7283 801.483 20.8495C801.708 20.8841 801.951 20.9187 802.176 20.9707C802.765 21.0746 803.337 21.1612 803.926 21.2651C804.133 21.2997 804.341 21.3343 804.567 21.3863C805.329 21.5248 806.074 21.6634 806.836 21.8019C806.94 21.8019 807.044 21.8365 807.148 21.8538C807.789 21.9751 808.447 22.0963 809.088 22.2348C809.313 22.2695 809.556 22.3214 809.781 22.356C810.335 22.4773 810.89 22.5812 811.444 22.7024C811.635 22.737 811.825 22.7716 812.033 22.8236C812.743 22.9621 813.471 23.118 814.181 23.2738C814.32 23.3085 814.441 23.3258 814.58 23.3604C815.169 23.4816 815.74 23.6202 816.312 23.7587C816.52 23.8106 816.728 23.8626 816.953 23.8972C817.49 24.0185 818.027 24.1397 818.547 24.2782C818.72 24.3128 818.876 24.3648 819.049 24.3994C819.725 24.5726 820.383 24.7284 821.042 24.9016C821.18 24.9362 821.319 24.9709 821.44 25.0055C821.96 25.144 822.479 25.2826 822.999 25.4211C823.19 25.4731 823.398 25.525 823.588 25.577C824.091 25.7155 824.593 25.854 825.078 25.9926C825.199 26.0272 825.355 26.0618 825.476 26.1138C826.083 26.287 826.689 26.4601 827.278 26.6506C827.417 26.7026 827.555 26.7372 827.694 26.7718C828.144 26.9104 828.595 27.0662 829.028 27.2048C829.201 27.2567 829.374 27.326 829.548 27.3779C830.015 27.5338 830.466 27.6896 830.899 27.8455C831.003 27.8801 831.107 27.9147 831.211 27.9494C831.748 28.1399 832.267 28.3477 832.787 28.5381C832.908 28.5901 833.047 28.642 833.186 28.694C833.567 28.8499 833.948 29.0057 834.329 29.1616C834.468 29.2135 834.623 29.2828 834.762 29.352C835.178 29.5252 835.576 29.6984 835.975 29.8889C836.027 29.9235 836.113 29.9408 836.183 29.9754C836.633 30.1832 837.066 30.3911 837.482 30.6162C837.603 30.6681 837.707 30.7374 837.828 30.7893C838.14 30.9625 838.452 31.1184 838.747 31.2915C838.868 31.3608 838.972 31.4127 839.093 31.482C839.439 31.6898 839.786 31.8976 840.115 32.1054C840.15 32.1227 840.167 32.1401 840.202 32.1574C840.548 32.3825 840.895 32.6076 841.207 32.85C841.293 32.9193 841.38 32.9886 841.466 33.0578C841.709 33.231 841.934 33.4042 842.142 33.5774C842.229 33.6466 842.315 33.7159 842.402 33.7852C842.679 34.0276 842.956 34.27 843.199 34.5125C860.609 51.9159 859.119 71.2069 859.119 71.2069C859.119 71.2069 869.219 100.057 869.237 110.585C862.151 113.945 859.119 118.413 859.119 118.413C869.548 113.685 875.716 111.919 879.475 111.798C883.945 111.659 885.053 113.893 885.919 116.335C886.612 118.291 884.689 121.391 882.264 124.283C879.215 127.92 875.387 131.227 875.161 131.435C878.314 130.777 881.017 129.928 883.321 128.924C904.404 119.763 891.428 98.2904 887.375 89.5281C882.87 79.8133 885.919 77.4756 885.919 77.4756C888.449 82.8784 891.688 82.1511 898.15 83.4152C904.629 84.6794 911.108 110.932 911.108 110.932C914.261 98.7753 905.998 85.5798 902.325 80.5233C901.927 79.9692 901.719 79.3111 901.719 78.6704C901.719 77.8565 902.031 77.0253 902.654 76.4019C903.919 75.1378 905.981 75.1378 907.211 76.4365C909.826 79.1726 913.915 84.5581 915.786 92.9222C916.6 96.5587 916.999 100.767 916.687 105.563C915.249 127.331 899.051 131.816 888.622 135.054C887.357 135.452 886.162 135.903 885.019 136.387C877.933 139.453 873.29 144.059 872.095 145.323C872.736 144.925 874.364 144.388 876.668 143.695L882.212 173.238L893.109 231.284C893.109 231.284 906.067 265.467 880.151 256.116C854.251 246.765 801.587 224.651 719.939 224.651C638.292 224.651 585.627 246.765 559.728 256.116C533.812 265.467 546.77 231.284 546.77 231.284L557.667 173.238L563.21 143.695C565.497 144.405 567.143 144.925 567.784 145.323C566.606 144.042 561.963 139.435 554.86 136.387C553.717 135.885 552.521 135.452 551.257 135.054C540.828 131.816 524.63 127.331 523.192 105.563C522.88 100.767 523.279 96.5587 524.093 92.9222L524.145 92.9568Z" fill="#00E8E7"/>
<path d="M887.063 72.246C887.617 75.0167 890.216 76.8869 893.022 76.5405L878.782 11.7063C879.96 15.8277 895.136 69.2155 895.136 76.2808C898.341 75.8825 900.472 72.8001 899.727 69.6831L885.4 9.1607C884.811 6.70171 882.611 5.02197 880.133 5.02197C879.873 5.02197 879.596 5.02197 879.319 5.07392C876.27 5.54148 874.226 8.46803 874.849 11.4812L887.063 72.246Z" fill="white"/>
<path d="M544.847 76.2808C544.847 69.2155 560.023 15.8277 561.201 11.7063L546.96 76.5406C549.767 76.8869 552.365 75.0167 552.92 72.246L565.133 11.4985C565.739 8.48536 563.713 5.55881 560.664 5.09126C560.386 5.05662 560.109 5.03931 559.849 5.03931C557.372 5.03931 555.172 6.71904 554.583 9.17803L540.256 69.7004C539.511 72.8348 541.642 75.9172 544.847 76.2981V76.2808Z" fill="white"/>
<path d="M551.309 135.089C552.573 135.487 553.769 135.937 554.912 136.422C561.998 139.487 566.64 144.094 567.836 145.358C567.195 144.959 565.566 144.423 563.262 143.73L557.719 173.273L546.822 231.319C546.822 231.319 533.864 265.502 559.78 256.151C585.679 246.8 638.361 224.686 719.991 224.686C801.621 224.686 854.286 246.8 880.203 256.151C906.119 265.502 893.161 231.319 893.161 231.319L882.264 173.273L876.721 143.73C874.434 144.44 872.788 144.959 872.147 145.358C873.325 144.076 877.968 139.47 885.071 136.422C886.214 135.92 887.409 135.487 888.674 135.089C899.103 131.851 915.301 127.366 916.739 105.598C917.051 100.802 916.652 96.5935 915.838 92.957C913.967 84.593 909.878 79.2247 907.263 76.4714C906.033 75.1899 903.954 75.1726 902.706 76.4367C902.083 77.0601 901.771 77.8913 901.771 78.7052C901.771 79.3633 901.961 80.0213 902.377 80.5581C906.05 85.632 914.331 98.8274 911.16 110.967C911.16 110.967 904.681 84.6969 898.202 83.45C891.74 82.1859 888.501 82.9132 885.971 77.5104C885.971 77.5104 882.922 79.8481 887.427 89.5629C891.48 98.3252 904.456 119.798 883.373 128.959C881.069 129.963 878.366 130.812 875.213 131.47C875.439 131.262 879.267 127.954 882.316 124.318C884.742 121.426 886.682 118.326 885.971 116.369C885.088 113.928 883.997 111.694 879.527 111.832C875.768 111.954 869.6 113.72 859.171 118.447C859.171 118.447 862.203 113.98 869.289 110.62C869.289 100.092 859.171 71.2417 859.171 71.2417C859.171 71.2417 860.661 51.9507 843.251 34.5473C843.008 34.3048 842.731 34.0624 842.454 33.82C842.367 33.7507 842.281 33.6814 842.194 33.6122C841.986 33.439 841.761 33.2658 841.518 33.0927C841.432 33.0234 841.345 32.9541 841.259 32.8848C840.929 32.6597 840.6 32.4173 840.254 32.1922C840.219 32.1749 840.202 32.1575 840.167 32.1402C839.838 31.9324 839.491 31.7246 839.145 31.5168C839.024 31.4476 838.92 31.3956 838.799 31.3263C838.504 31.1532 838.192 30.9973 837.88 30.8241C837.759 30.7722 837.655 30.7029 837.534 30.651C837.118 30.4432 836.668 30.2354 836.235 30.0103C836.165 29.9756 836.096 29.9583 836.027 29.9237C835.628 29.7505 835.23 29.56 834.814 29.3868C834.675 29.3176 834.52 29.2656 834.381 29.1964C834 29.0405 833.619 28.8847 833.238 28.7288C833.099 28.6769 832.978 28.6249 832.839 28.573C832.319 28.3652 831.8 28.1747 831.263 27.9842C831.159 27.9495 831.055 27.9149 830.951 27.8803C830.5 27.7244 830.05 27.5686 829.6 27.4127C829.426 27.3608 829.253 27.2915 829.08 27.2396C828.647 27.101 828.196 26.9452 827.746 26.8066C827.607 26.7547 827.469 26.7201 827.33 26.6854C826.741 26.4949 826.152 26.3218 825.528 26.1486C825.39 26.0966 825.251 26.062 825.13 26.0274C824.645 25.8888 824.143 25.7503 823.64 25.6118C823.45 25.5598 823.242 25.5079 823.051 25.4559C822.531 25.3174 822.029 25.1789 821.492 25.0403C821.353 25.0057 821.215 24.9711 821.094 24.9364C820.435 24.7632 819.777 24.6074 819.101 24.4342C818.928 24.3996 818.772 24.3476 818.599 24.313C818.079 24.1918 817.542 24.0706 817.005 23.932C816.797 23.8801 816.589 23.8281 816.364 23.7935C815.792 23.655 815.203 23.5338 814.632 23.3952C814.493 23.3779 814.372 23.3433 814.233 23.3086C813.523 23.1528 812.813 22.9969 812.085 22.8584C811.895 22.8064 811.704 22.7718 811.496 22.7372C810.942 22.616 810.387 22.5121 809.833 22.3908C809.608 22.3389 809.383 22.3043 809.14 22.2696C808.499 22.1484 807.858 22.0272 807.2 21.8887C807.096 21.8887 806.992 21.854 806.888 21.8367C806.126 21.6982 805.381 21.5596 804.619 21.4211C804.393 21.3865 804.185 21.3518 803.978 21.2999C803.389 21.196 802.817 21.0921 802.228 21.0055C802.003 20.9535 801.76 20.9189 801.535 20.8843C800.825 20.7631 800.097 20.6418 799.369 20.5206C799.317 20.5206 799.248 20.5206 799.196 20.486C798.417 20.3648 797.62 20.2436 796.823 20.1223C796.598 20.0877 796.372 20.0531 796.147 20.0184C795.541 19.9145 794.952 19.8279 794.345 19.7414C794.12 19.7067 793.895 19.6721 793.67 19.6375C792.873 19.5162 792.076 19.4123 791.279 19.2911C791.245 19.2911 791.227 19.2911 791.21 19.2911C790.43 19.1699 789.651 19.066 788.854 18.9621C788.629 18.9275 788.386 18.8928 788.144 18.8582C787.537 18.7716 786.931 18.685 786.342 18.6158L785.649 18.5292C784.835 18.4253 784.038 18.3214 783.224 18.2175C783.154 18.2175 783.085 18.2175 783.016 18.1828C782.271 18.0963 781.543 18.0097 780.798 17.9058C780.556 17.8711 780.313 17.8538 780.053 17.8192C779.447 17.7499 778.841 17.6807 778.234 17.5941C778.026 17.5768 777.801 17.5421 777.593 17.5248C776.779 17.4382 775.982 17.3343 775.185 17.2477C775.064 17.2477 774.96 17.2304 774.839 17.2131C774.146 17.1438 773.453 17.0573 772.76 16.988C772.535 16.9534 772.292 16.936 772.067 16.9187C771.443 16.8495 770.837 16.7802 770.213 16.7109C770.005 16.7109 769.815 16.6763 769.607 16.659C768.827 16.5724 768.03 16.4858 767.251 16.4165L766.801 16.3646C766.16 16.2953 765.519 16.2434 764.878 16.1741C764.652 16.1568 764.41 16.1221 764.167 16.1048C763.544 16.0529 762.937 15.9836 762.314 15.9317C762.158 15.9317 761.984 15.897 761.829 15.8797C761.049 15.8104 760.287 15.7412 759.524 15.6719C759.369 15.6719 759.23 15.6373 759.074 15.62C758.45 15.568 757.827 15.5161 757.22 15.4468C757.013 15.4468 756.805 15.4122 756.597 15.3948C755.973 15.3429 755.367 15.2909 754.743 15.239C754.605 15.239 754.483 15.2217 754.345 15.2043C753.6 15.1524 752.872 15.0831 752.145 15.0312C751.989 15.0312 751.833 15.0139 751.677 14.9965C751.105 14.9446 750.551 14.91 749.996 14.858C749.788 14.858 749.581 14.8234 749.355 14.8061C748.766 14.7541 748.195 14.7195 747.623 14.6848C747.502 14.6848 747.398 14.6675 747.276 14.6502C746.584 14.5983 745.925 14.5463 745.25 14.4944C745.076 14.4944 744.92 14.477 744.765 14.4597C744.245 14.4251 743.742 14.3905 743.24 14.3385C743.049 14.3385 742.876 14.3212 742.686 14.3039C742.114 14.2692 741.542 14.2173 740.988 14.1827C740.919 14.1827 740.849 14.1827 740.78 14.1827C740.156 14.1307 739.567 14.0961 738.961 14.0614C738.788 14.0614 738.615 14.0441 738.459 14.0268C738.216 14.0268 737.974 13.9922 737.731 13.9749C737.714 13.9749 737.696 13.9749 737.679 13.9749C727.008 13.2822 720.026 12.9878 720.026 12.9878C720.026 12.9878 713.045 13.2649 702.39 13.9749C702.373 13.9749 702.338 13.9749 702.321 13.9749C702.078 13.9749 701.836 14.0095 701.576 14.0268C701.42 14.0268 701.264 14.0441 701.091 14.0614C700.502 14.0961 699.878 14.1307 699.255 14.1827C699.203 14.1827 699.133 14.1827 699.081 14.1827C698.51 14.2173 697.938 14.2519 697.349 14.3039C697.176 14.3039 697.003 14.3212 696.812 14.3385C696.31 14.3731 695.79 14.4078 695.288 14.4597C695.114 14.4597 694.958 14.477 694.802 14.4944C694.127 14.5463 693.469 14.5983 692.776 14.6502C692.654 14.6502 692.55 14.6502 692.446 14.6675C691.857 14.7195 691.286 14.7541 690.697 14.8061C690.489 14.8061 690.281 14.8407 690.073 14.858C689.519 14.91 688.964 14.9446 688.393 14.9965C688.219 14.9965 688.063 15.0139 687.908 15.0312C687.18 15.0831 686.452 15.1524 685.707 15.2217C685.586 15.2217 685.465 15.2217 685.344 15.2563C684.737 15.3083 684.114 15.3602 683.49 15.4122C683.282 15.4122 683.057 15.4468 682.849 15.4641C682.225 15.5161 681.619 15.5853 680.995 15.6373C680.857 15.6373 680.718 15.6546 680.58 15.6719C679.817 15.7412 679.038 15.8104 678.258 15.8797C678.102 15.8797 677.946 15.9143 677.79 15.9317C677.167 15.9836 676.543 16.0529 675.919 16.1048C675.694 16.1221 675.452 16.1568 675.226 16.1741C674.585 16.226 673.927 16.2953 673.269 16.3646L672.836 16.4165C672.056 16.4858 671.259 16.5724 670.462 16.659C670.272 16.6763 670.064 16.7109 669.873 16.7109C669.267 16.7802 668.643 16.8495 668.02 16.9014C667.777 16.936 667.552 16.9534 667.309 16.988C666.616 17.0573 665.924 17.1438 665.248 17.2131C665.127 17.2131 665.005 17.2477 664.901 17.2477C664.087 17.3343 663.29 17.4382 662.476 17.5248C662.268 17.5421 662.043 17.5768 661.835 17.5941C661.229 17.6633 660.622 17.7326 659.999 17.8192L659.271 17.9058C658.526 17.9924 657.781 18.0789 657.036 18.1828C656.967 18.1828 656.915 18.2002 656.846 18.2175C656.032 18.3214 655.217 18.4253 654.42 18.5292C654.195 18.5638 653.953 18.5811 653.728 18.6158C653.121 18.7024 652.515 18.7889 651.909 18.8582C651.683 18.8928 651.441 18.9102 651.198 18.9621C650.419 19.066 649.622 19.1699 648.842 19.2911C648.842 19.2911 648.808 19.2911 648.79 19.2911C647.976 19.4123 647.179 19.5162 646.382 19.6375C646.157 19.6721 645.932 19.7067 645.707 19.7414C645.1 19.8279 644.494 19.9145 643.905 20.0184C643.68 20.0531 643.454 20.0877 643.229 20.1223C642.432 20.2436 641.653 20.3648 640.856 20.5033C640.804 20.5033 640.752 20.5206 640.683 20.5379C639.955 20.6592 639.227 20.7804 638.5 20.9016C638.275 20.9362 638.049 20.9709 637.807 21.0228C637.218 21.1267 636.646 21.2306 636.057 21.3345C635.849 21.3691 635.641 21.4038 635.416 21.4557C634.654 21.5943 633.892 21.7328 633.147 21.8713C633.043 21.8713 632.956 21.906 632.852 21.9233C632.194 22.0445 631.536 22.1657 630.895 22.3043C630.669 22.3389 630.444 22.3908 630.219 22.4255C629.665 22.5467 629.11 22.6506 628.539 22.7718C628.348 22.8064 628.157 22.8411 627.95 22.893C627.222 23.0316 626.512 23.1874 625.801 23.3433C625.663 23.3779 625.542 23.3952 625.42 23.4299C624.831 23.5511 624.26 23.6896 623.671 23.8281C623.463 23.8801 623.255 23.932 623.03 23.9667C622.493 24.0879 621.956 24.2091 621.436 24.3476C621.28 24.3823 621.107 24.4342 620.951 24.4689C620.275 24.642 619.617 24.7979 618.959 24.9711C618.82 25.0057 618.681 25.0403 618.56 25.075C618.04 25.2135 617.521 25.352 617.001 25.4906C616.81 25.5425 616.602 25.5945 616.412 25.6464C615.909 25.7849 615.424 25.9235 614.922 26.062C614.783 26.0966 614.645 26.1313 614.506 26.1832C613.9 26.3564 613.294 26.5296 612.705 26.7201C612.566 26.772 612.427 26.8066 612.289 26.8413C611.821 26.9798 611.371 27.1357 610.938 27.2742C610.764 27.3261 610.591 27.3954 610.418 27.4474C609.95 27.6032 609.5 27.7591 609.067 27.9149C608.963 27.9496 608.859 27.9842 608.755 28.0188C608.218 28.2093 607.698 28.4171 607.196 28.6076C607.057 28.6595 606.936 28.7115 606.797 28.7634C606.416 28.9193 606.035 29.0751 605.654 29.231C605.515 29.2829 605.359 29.3522 605.221 29.4215C604.805 29.5946 604.406 29.7678 604.008 29.9583C603.939 29.9929 603.869 30.0103 603.8 30.0449C603.35 30.2527 602.917 30.4605 602.501 30.6856L602.154 30.8588C601.843 31.0319 601.531 31.1878 601.236 31.361C601.115 31.4302 601.011 31.4822 600.89 31.5515C600.543 31.7593 600.197 31.9671 599.868 32.1749C599.833 32.1922 599.816 32.2095 599.781 32.2268C599.434 32.4519 599.088 32.677 598.776 32.9195C598.69 32.9888 598.603 33.058 598.516 33.1273C598.274 33.3005 598.049 33.4736 597.841 33.6468C597.754 33.7161 597.667 33.7853 597.581 33.8546C597.304 34.097 597.026 34.3395 596.784 34.5819C579.373 51.9853 580.863 71.2763 580.863 71.2763C580.863 71.2763 570.763 100.126 570.746 110.655C577.832 114.014 580.863 118.482 580.863 118.482C570.434 113.755 564.267 111.988 560.508 111.867C556.038 111.728 554.929 113.962 554.063 116.404C553.37 118.361 555.293 121.461 557.719 124.352C560.768 127.989 564.596 131.296 564.821 131.504C561.668 130.846 558.949 129.998 556.662 128.993C535.579 119.833 548.554 98.3599 552.608 89.5975C557.112 79.8828 554.063 77.545 554.063 77.545C551.534 82.9479 548.294 82.2205 541.833 83.4847C535.353 84.7488 528.874 111.001 528.874 111.001C525.721 98.8447 533.985 85.6493 537.658 80.5928C538.056 80.0386 538.264 79.3806 538.264 78.7399C538.264 77.926 537.952 77.0948 537.328 76.4714C536.064 75.2072 534.002 75.2072 532.772 76.506C530.156 79.242 526.068 84.6276 524.197 92.9916C523.383 96.6282 522.984 100.836 523.296 105.633C524.734 127.4 540.932 131.885 551.361 135.124L551.309 135.089Z" fill="white"/>
<path d="M934.738 197.048C923.911 186.399 911.975 177.74 905.392 173.272H893.75C894.322 175.61 894.876 177.931 895.43 180.217C899.051 182.537 913.846 192.338 926.804 205.101C946.362 224.34 956.688 244.168 956.688 262.437C956.688 302.577 915.994 312.638 907.505 314.301C907.453 325.176 907.176 337.003 906.518 348.19C906.518 348.19 922.577 367.758 918.159 398.79C913.724 429.822 871.627 423.155 871.627 423.155C861.268 431.571 849.73 438.463 838.452 442.497C815.481 450.74 730.853 480.162 720.736 517.635L719.991 518.951L719.246 517.635C709.129 480.162 624.502 450.758 601.531 442.497C590.253 438.463 578.715 431.571 568.355 423.155C568.355 423.155 526.258 429.822 521.823 398.79C517.406 367.758 533.465 348.19 533.465 348.19C532.789 336.986 532.53 325.176 532.478 314.301C524.006 312.638 483.312 302.577 483.312 262.437C483.312 244.185 493.638 224.357 513.196 205.101C526.172 192.338 540.949 182.537 544.57 180.217C545.124 177.931 545.678 175.61 546.25 173.272H534.609C528.025 177.74 516.107 186.381 505.279 197.048C483.503 218.452 472 241.068 472 262.437C472 283.806 481.095 300.24 498.298 312.102C506.336 317.643 514.773 321.037 521.252 323.063C521.373 330.925 521.616 338.25 521.962 344.934C516.817 352.987 506.717 372.901 510.632 400.383C512.139 410.894 517.215 419.622 525.306 425.596C538.472 435.311 556.194 435.501 564.977 434.878C575.631 442.982 586.857 449.251 597.702 453.13L599.608 453.805C612.081 458.273 638.049 467.572 661.887 480.11C688.583 494.154 705.075 508.509 708.332 520.562L708.696 521.947L720.026 542L731.269 521.913L731.633 520.562C734.89 508.509 751.382 494.154 778.078 480.11C801.933 467.572 827.884 458.273 840.358 453.805L842.263 453.13C853.108 449.251 864.351 442.982 875.005 434.878C883.789 435.519 901.528 435.311 914.677 425.596C922.785 419.622 927.861 410.912 929.35 400.383C933.266 372.901 923.148 352.987 918.021 344.934C918.367 338.25 918.61 330.925 918.731 323.063C925.227 321.037 933.647 317.643 941.702 312.102C958.905 300.257 968 283.079 968 262.437C968 241.795 956.497 218.469 934.738 197.048V197.048Z" fill="white"/>
<path d="M907.505 306.508C907.505 307.755 907.505 309.002 907.505 310.283C909.324 309.989 919.822 308.067 930.182 301.867C945.115 292.915 952.703 279.65 952.703 262.454C952.703 224.859 906.344 192.234 896.782 185.914C900.472 201.187 903.85 214.902 906.275 224.704C908.614 234.176 910.069 239.977 910.069 239.977C910.069 239.977 916.548 268.03 906.829 271.996C906.829 271.996 906.951 274.784 907.089 279.546C910.121 278.368 922.559 272.481 924.448 254.731C922.698 248.41 918.09 238.315 906.275 224.704C906.673 225.033 919.095 235.665 924.413 244.774C923.651 237.224 921.243 228.098 916.375 217.136C916.964 218.002 947.662 263.355 907.245 285.971C907.349 290.542 907.436 296.032 907.488 302.093V306.543L907.505 306.508Z" fill="white"/>
<path d="M915.578 385.975C913.759 367.152 909.497 358.701 906.084 354.926C904.785 372.278 902.394 387.309 898.202 393.924C894.564 399.673 890.077 405.37 884.984 410.773C884.984 410.773 900.489 408.331 903.78 401.335C903.521 401.976 899.224 412.245 882.074 413.769C881.155 414.687 880.237 415.587 879.284 416.47C879.284 416.47 918.817 419.553 915.578 385.975Z" fill="white"/>
<path d="M894.599 352.917L893.698 293.832L887.496 304.084V349.679C887.496 379.36 876.963 390.166 876.963 390.166L875.352 402.565C893.698 391.24 894.599 352.917 894.599 352.917V352.917Z" fill="white"/>
<path d="M877.379 347.289C877.379 338.129 871.852 330.423 864.334 328.154C869.029 331.722 872.095 337.748 872.095 344.588C872.095 355.55 864.195 364.416 854.442 364.416C852.831 364.416 851.289 364.191 849.799 363.723C852.623 365.87 856.036 367.135 859.708 367.135C869.462 367.135 877.361 358.251 877.361 347.307L877.379 347.289Z" fill="white"/>
<path d="M871.437 392.348C871.437 385.04 867.66 378.581 861.857 374.65C863.606 377.733 864.628 381.317 864.628 385.127C864.628 396.625 855.551 405.959 844.342 405.959C836.39 405.959 829.53 401.231 826.204 394.391C827.278 405.405 836.98 414.011 848.777 414.011C861.302 414.011 871.437 404.314 871.437 392.348V392.348Z" fill="white"/>
<path d="M871.697 278.611C868.024 275.234 863.121 273.156 857.734 273.156C855.308 273.156 853.004 273.589 850.839 274.351C851.705 274.23 852.571 274.16 853.455 274.16C858.704 274.16 863.45 276.221 866.984 279.563C864.836 280.117 862.809 280.827 861.008 281.728C861.008 281.728 864.247 282.75 869.93 283.096C871.956 286.178 873.117 289.867 873.117 293.832C873.117 304.69 864.317 313.504 853.437 313.504C852.554 313.504 851.687 313.418 850.821 313.296C852.987 314.076 855.291 314.509 857.716 314.509C869.133 314.509 878.401 305.244 878.401 293.832C878.401 289.936 877.309 286.299 875.439 283.2C881.658 283.044 889.627 281.97 898.791 278.819C898.791 278.819 884.343 276.671 871.679 278.611H871.697Z" fill="white"/>
<path d="M851.497 300.932C856.746 300.932 861.008 296.69 861.008 291.425C861.008 286.161 857.006 282.143 851.93 281.918C830.552 281.001 780.001 283.65 763.024 284.585C760.339 284.741 759.421 288.239 761.69 289.711C767.459 293.434 777.732 296.672 785.372 298.716C791.002 300.222 796.805 300.915 802.644 300.776C816.364 300.447 838.643 300.707 851.341 300.915H851.497V300.932Z" fill="white"/>
<path d="M719.991 494.032C719.991 494.032 739.307 467.59 768.464 458.949C797.62 450.307 855.655 419.553 855.655 419.553H841.605C841.605 419.553 795.177 443.294 770.889 449.494C746.601 455.71 719.991 479.729 719.991 479.729C719.991 479.729 693.382 455.71 669.094 449.494C644.806 443.294 598.378 419.553 598.378 419.553H584.328C584.328 419.553 642.363 450.307 671.519 458.949C700.658 467.59 719.991 494.032 719.991 494.032V494.032Z" fill="white"/>
<path d="M839.734 387.776C842.073 390.356 845.763 391.257 848.968 389.872C852.069 388.538 853.818 385.56 853.818 382.477C853.818 380.901 853.351 379.291 852.363 377.871C845.797 368.416 829.08 358.58 815.186 354.355H784.869L793.15 376.468C793.15 376.468 825.719 380.711 831.124 393.647H835.594C835.594 393.647 823.276 376.642 812.362 371.256C818.893 373.819 832.631 379.862 839.751 387.759L839.734 387.776Z" fill="white"/>
<path d="M817.404 307.946H848.812L844.082 303.807H807.373C808.447 304.881 817.386 307.946 817.386 307.946H817.404Z" fill="white"/>
<path d="M588.59 280.914C584.172 281.035 580.534 284.412 580.118 288.811C579.651 293.85 583.531 298.231 588.59 298.335C610.574 298.854 664.278 300.447 672.611 304.084C672.611 304.084 598.204 300.482 591.275 307.409C591.275 307.409 653.052 307.669 720.009 318.405C762.331 325.193 806.732 336.172 838.902 353.939C840.791 354.961 842.61 356.035 844.411 357.108C845.641 357.87 846.871 358.615 848.067 359.394C848.067 359.394 846.733 357.247 843.077 353.818C841.57 352.398 839.647 350.736 837.257 348.935C827.555 341.558 810.024 331.497 779.88 322.752C788.94 325.297 816.225 333.107 837.239 340.311C839.11 340.952 840.929 341.592 842.662 342.233C847.599 343.999 852.017 345.696 855.499 347.238C859.033 348.796 863.121 347.116 864.507 343.532L864.542 343.411C865.772 340.207 864.403 336.605 861.354 335.029C858.808 333.73 855.377 332.033 851.064 330.042C849.349 329.228 847.495 328.397 845.503 327.514C821.752 317.002 778.737 300.846 720.009 290.542C682.347 283.927 638.223 279.719 588.59 280.931V280.914Z" fill="white"/>
<path d="M719.991 463.538C721.741 454.637 828.924 412.816 828.924 412.816L823.519 407.691C823.519 407.691 726.055 445.996 719.991 456.784C713.928 445.996 616.464 407.691 616.464 407.691L611.059 412.816C611.059 412.816 718.242 454.637 719.991 463.538V463.538Z" fill="white"/>
<path d="M816.104 390.963C814.337 386.651 787.832 383.135 787.832 383.135L774.475 345.904H794.12C794.12 345.904 769.105 336.536 720.009 338.025C670.895 336.536 645.897 345.904 645.897 345.904H665.525L652.168 383.135C652.168 383.135 625.645 386.651 623.896 390.963C623.896 390.963 648.236 393.387 655.841 388.296C655.079 388.902 642.294 398.513 622.683 398.513C622.683 398.513 620.518 406.063 637.252 402.565C653.987 399.067 698.284 393.664 720.009 393.664C741.733 393.664 786.03 399.067 802.747 402.565C819.482 406.08 817.317 398.513 817.317 398.513C797.706 398.513 784.921 388.902 784.159 388.296C791.764 393.387 816.104 390.963 816.104 390.963Z" fill="white"/>
<path d="M757.792 414.964C757.792 418.393 760.564 421.181 764.011 421.181C767.459 421.181 770.213 418.393 770.213 414.964C770.213 411.535 767.441 408.764 764.011 408.764C760.581 408.764 757.792 411.535 757.792 414.964Z" fill="white"/>
<path d="M736.033 411.518C736.033 414.947 738.822 417.735 742.253 417.735C745.683 417.735 748.454 414.947 748.454 411.518C748.454 408.089 745.683 405.318 742.253 405.318C738.822 405.318 736.033 408.089 736.033 411.518Z" fill="white"/>
<path d="M713.772 408.764C713.772 412.193 716.544 414.964 719.991 414.964C723.439 414.964 726.211 412.193 726.211 408.764C726.211 405.336 723.439 402.548 719.991 402.548C716.544 402.548 713.772 405.336 713.772 408.764Z" fill="white"/>
<path d="M691.528 411.518C691.528 414.947 694.3 417.735 697.73 417.735C701.16 417.735 703.949 414.947 703.949 411.518C703.949 408.089 701.16 405.318 697.73 405.318C694.3 405.318 691.528 408.089 691.528 411.518V411.518Z" fill="white"/>
<path d="M588.936 359.377C589.802 358.978 645.655 333.436 681.169 324.812C682.433 324.5 682.658 322.803 681.515 322.197C675.937 319.236 661.939 313.833 634.654 314.214C623.982 314.37 613.519 317.227 604.181 322.422L584.328 333.471C578.94 336.466 579.304 344.328 584.969 346.805C585.922 347.22 586.944 347.445 587.966 347.445C589.075 347.445 590.166 347.203 591.188 346.701C602.657 341.159 643.42 322.163 663.706 322.163C663.706 322.163 594.636 343.185 588.936 359.394V359.377Z" fill="white"/>
<path d="M669.787 414.964C669.787 418.393 672.559 421.181 675.989 421.181C679.419 421.181 682.208 418.393 682.208 414.964C682.208 411.535 679.436 408.764 675.989 408.764C672.541 408.764 669.787 411.535 669.787 414.964Z" fill="white"/>
<path d="M602.83 393.664H607.282C612.687 380.711 645.256 376.486 645.256 376.486L653.537 354.372H623.22C609.326 358.597 592.609 368.451 586.043 377.888C585.056 379.308 584.588 380.919 584.588 382.495C584.588 385.577 586.338 388.556 589.439 389.889C592.644 391.257 596.333 390.374 598.672 387.794C605.792 379.897 619.513 373.854 626.061 371.291C615.147 376.693 602.83 393.681 602.83 393.681V393.664Z" fill="white"/>
<path d="M592.713 414.011C604.51 414.011 614.194 405.405 615.286 394.391C611.977 401.231 605.099 405.959 597.13 405.959C585.939 405.959 576.844 396.625 576.844 385.127C576.844 381.3 577.866 377.733 579.633 374.65C573.83 378.581 570.036 385.04 570.036 392.348C570.036 404.314 580.188 414.011 592.713 414.011V414.011Z" fill="white"/>
<path d="M592.488 364.849C594.514 363.654 596.212 362.147 597.65 360.433C596.992 360.952 596.316 361.455 595.554 361.888C586.494 367.256 574.8 364.26 569.43 355.203C564.076 346.147 567.073 334.44 576.134 329.089C576.879 328.657 577.641 328.276 578.403 327.964C576.22 328.379 574.072 329.176 572.063 330.354C562.535 335.982 559.382 348.277 565.012 357.801C570.642 367.325 582.942 370.477 592.47 364.831L592.488 364.849Z" fill="white"/>
<path d="M563.054 293.832C563.054 305.261 572.323 314.509 583.739 314.509C586.164 314.509 588.486 314.076 590.651 313.296C589.785 313.418 588.919 313.504 588.035 313.504C577.173 313.504 568.355 304.69 568.355 293.832C568.355 282.975 577.156 274.16 588.035 274.16C588.919 274.16 589.802 274.23 590.651 274.351C588.503 273.589 586.182 273.156 583.739 273.156C572.323 273.156 563.054 282.421 563.054 293.832Z" fill="white"/>
<path d="M564.631 329.297L571.249 323.236V316.483L564.631 311.773V329.297Z" fill="white"/>
<path d="M563.02 390.149C563.02 390.149 552.487 379.36 552.487 349.662V304.067L546.285 293.815L545.384 352.9C545.384 352.9 546.285 391.222 564.631 402.547L563.02 390.149V390.149Z" fill="white"/>
<path d="M560.716 416.47C559.78 415.587 558.845 414.669 557.926 413.769C540.793 412.262 536.479 401.976 536.22 401.335C539.494 408.331 555.016 410.773 555.016 410.773C549.923 405.37 545.436 399.673 541.798 393.924C537.623 387.309 535.232 372.278 533.916 354.926C530.503 358.719 526.241 367.169 524.422 385.975C521.182 419.57 560.716 416.47 560.716 416.47Z" fill="white"/>
<path d="M533.708 224.686C536.133 214.885 539.511 201.17 543.201 185.896C533.638 192.217 487.28 224.842 487.28 262.437C487.28 279.633 494.85 292.897 509.801 301.85C520.143 308.05 530.659 309.972 532.478 310.266C532.478 309.002 532.478 307.738 532.478 306.491V302.041C532.53 295.98 532.634 290.49 532.72 285.919C492.304 263.303 523.019 217.95 523.591 217.084C518.723 228.046 516.314 237.172 515.552 244.722C520.888 235.613 533.309 224.981 533.69 224.652C521.875 238.263 517.285 248.358 515.518 254.679C517.406 272.429 529.844 278.299 532.876 279.494C533.015 274.732 533.136 271.944 533.136 271.944C523.417 267.996 529.896 239.925 529.896 239.925C529.896 239.925 531.352 234.124 533.69 224.652L533.708 224.686Z" fill="white"/>
<path d="M672.563 89.0667C672.503 75.8967 656.513 74.2083 669.098 57.2262C671.325 54.0894 671.573 50.2847 670.193 46.9229C668.528 52.8812 664.77 58.0066 661.058 62.9519C659.378 65.1807 657.615 67.6195 657.593 70.4186C657.593 78.1105 669.345 81.2322 668.813 89.0742C668.813 89.0742 670.995 87.003 672.563 89.0742V89.0667Z" fill="#0B0D20"/>
<path d="M699.27 87.7309C698.64 83.1683 688.958 72.7449 687.12 81.3148C684.653 92.1434 671.61 97.9967 670.14 109.238C669.383 101.051 677.955 94.0345 676.838 85.8849C675.983 79.6488 669.563 74.6285 670.5 68.415C670.5 68.37 670.515 68.3324 670.53 68.2949C673.575 58.7946 685.988 53.4515 685.913 41.7224C685.913 40.9645 684.885 40.7169 684.548 41.3997C680.49 49.6394 672.533 55.5452 667.47 63.2146C666.15 65.2182 665.663 67.6721 666.165 70.0134C668.198 79.5213 681.578 87.7009 667.905 103.4C670.553 98.7471 671.888 94.965 672.36 91.7982C672.353 91.7907 670.725 89.8171 667.928 91.7982C665.423 99.0323 660.735 110.191 655.793 113.831C655.778 113.846 655.755 113.853 655.74 113.868C654.48 114.671 652.928 115.279 652.283 116.6C652.23 116.705 652.208 116.817 652.208 116.93C652.253 129.312 677.55 114.559 681.008 109.643C681.03 109.613 681.053 109.576 681.068 109.546C684.233 103.115 683.438 102.889 690.63 100.773C690.66 100.766 690.69 100.758 690.713 100.743C694.395 99.1974 699.285 91.8657 699.278 87.836C699.278 87.7984 699.278 87.7684 699.278 87.7309H699.27ZM674.243 107.189C677.588 96.5559 687.63 94.6048 691.035 81.8551C692.633 93.6067 678.743 98.0942 674.243 107.189Z" fill="#0B0D20"/>
<path d="M685.38 79.5737L678.518 86.8528C678.638 87.971 677.693 93.8768 677.693 93.8768C686.903 86.4026 685.388 79.5812 685.388 79.5812L685.38 79.5737Z" fill="#0B0D20"/>
<path d="M683.003 64.0476C683.003 64.0476 695.483 52.3785 689.55 44.2739C689.55 44.2739 685.358 53.3916 680.805 57.9466L683.003 64.0476V64.0476Z" fill="#0B0D20"/>
<path d="M683.64 65.5033L685.335 69.6532C685.335 69.6532 693.51 62.3366 691.508 54.4946C691.508 54.4946 685.658 64.2501 683.633 65.4958L683.64 65.5033Z" fill="#0B0D20"/>
<path d="M687.735 74.8687C687.735 74.8687 690.428 71.1991 689.85 66.5615L686.025 71.1316L687.728 74.8687H687.735Z" fill="#0B0D20"/>
<path d="M680.303 62.5391L679.718 59.1997L673.365 66.2912C672.113 67.687 671.648 69.6156 672.113 71.4241L672.668 73.5703L678.758 67.4544C680.04 66.1636 680.618 64.3251 680.303 62.5316V62.5391Z" fill="#0B0D20"/>
<path d="M680.085 75.3489C683.19 72.2421 684.803 70.231 684.803 70.231C684.803 70.231 683.64 68.0998 681.195 68.4825C680.363 68.6101 679.598 69.0228 678.99 69.6157L673.485 74.9437C673.485 74.9437 676.988 78.4557 680.093 75.3489H680.085Z" fill="#0B0D20"/>
<path d="M685.748 73.3677C685.68 72.9024 685.56 72.4297 685.38 71.9419L680.55 76.7746C680.55 76.7746 677.835 79.7238 678.66 84.9993L683.895 79.2435C685.343 77.6526 686.055 75.4989 685.74 73.3752L685.748 73.3677Z" fill="#0B0D20"/>
<path d="M706.245 71.9719C708.188 73.8555 710.625 74.7935 713.535 74.7935C715.77 74.7935 716.738 74.1481 716.738 73.3227C716.738 72.5872 715.65 72.0845 712.448 70.9138C709.418 69.7657 707.888 67.8521 707.888 65.1806C707.888 63.3871 708.623 61.8562 710.123 60.5955C711.623 59.3273 713.535 58.7119 715.853 58.7119C718.943 58.7119 721.32 59.4773 722.993 60.9782L721.905 66.1861C720.263 64.4226 717.818 63.6872 715.965 63.6872C714.113 63.6872 713.318 64.19 713.318 64.8654C713.318 65.3382 713.73 65.7809 714.465 66.1561L715.553 66.6289C715.875 66.779 716.318 66.9215 716.843 67.1317L718.05 67.5744C720.9 68.7226 722.31 70.5461 722.31 73.045C722.31 74.9886 721.545 76.602 720.015 77.9002C718.485 79.1685 716.37 79.8138 713.633 79.8138C709.838 79.8138 707.018 78.9583 705.105 77.2549L706.223 71.9869L706.245 71.9719Z" fill="#0B0D20"/>
<path d="M725.558 79.4986L728.7 64.0549H723.173L724.2 58.9971H740.723L739.695 64.0549H734.288L731.145 79.4986H725.558V79.4986Z" fill="#0B0D20"/>
<path d="M737.49 79.4986L741.668 58.9971H756.78L755.753 64.0249H746.228L745.643 66.8465H754.523L753.615 71.4316H744.735L744.09 74.5459H753.848L752.85 79.4836H737.505L737.49 79.4986Z" fill="#0B0D20"/>
<path d="M754.807 79.4986L758.985 58.9971H767.595C769.62 58.9971 771.27 59.6124 772.53 60.8506C773.82 62.0588 774.473 63.6122 774.473 65.5258C774.473 67.6419 773.678 69.5255 772.095 71.1464C770.535 72.7673 768.6 73.5553 766.305 73.5553H761.603L760.395 79.4986H754.807V79.4986ZM762.63 68.4974H766.478C767.798 68.4974 768.885 67.2592 768.885 65.9685C768.885 64.8804 768.06 64.0549 766.883 64.0549H763.53L762.623 68.4974H762.63Z" fill="#0B0D20"/>
<path d="M705.57 104.06L709.748 83.5583H724.56L723.533 88.5862H714.3L713.655 91.7605H722.033L721.065 96.4957H712.688L711.158 104.052H705.57V104.06Z" fill="#0B0D20"/>
<path d="M724.268 104.06H718.388L734.175 82.1777L741.083 104.06H735.675L734.91 101.381H726.15L724.268 104.06ZM729.03 97.0586H733.823L732.443 92.1734L729.03 97.0586Z" fill="#0B0D20"/>
<path d="M741.848 104.06L746.025 83.5583H754.725C756.698 83.5583 758.28 84.1437 759.518 85.3519C760.785 86.53 761.4 88.0309 761.4 89.8844C761.4 91.3553 760.988 92.736 760.133 94.0643C759.278 95.355 758.16 96.3306 756.78 96.9759L760.133 104.067H754.05L751.17 97.6813H748.733L747.443 104.067H741.855L741.848 104.06ZM749.64 93.2088H753.195C754.605 93.2088 755.723 91.9406 755.723 90.6198C755.723 89.4417 754.898 88.6162 753.638 88.6162H750.578L749.64 93.2013V93.2088Z" fill="#0B0D20"/>
<path d="M760.95 104.06L765.27 82.7629L773.858 94.1168L787.793 82.5002L783.413 104.06H778.208L780.06 94.9423L772.92 101.058L768.098 94.4695L766.155 104.06H760.95V104.06Z" fill="#0B0D20"/>
</g>
<defs>
<clipPath id="clip0_0_1309">
<rect width="496" height="542" fill="white" transform="translate(472)"/>
</clipPath>
</defs>
</svg>
