<?xml version="1.0" encoding="UTF-8"?><svg id="a" xmlns="http://www.w3.org/2000/svg" viewBox="0 0 938.63 798.7"><defs><style>.b{opacity:.1;}.c{fill:#00e8e7;}.d{fill:#fff;}.e{fill:#9ca4af;}.f{fill:#0b0d20;}.g{fill:#646b73;}.h{opacity:.4;}</style></defs><g><g><path class="c" d="M66.63,212.6c-.9,0-1.7-.4-2.2-1.2L4.63,117.2c-.3-.5-.4-1.1-.4-1.6L12.23,37.8v-1.1l-1.9-31.9c0-.7,.2-1.4,.7-1.9s1.2-.8,1.9-.8h.5l44,7.9c.4,.1,.8,.2,1.1,.5l113.7,83.8c.6,.4,1,1.1,1,1.8,.1,.7-.2,1.4-.7,2l-104,113.7c-.5,.5-1.1,.8-1.9,.8Z"/><path class="d" d="M12.93,4.1h.1l44,7.9c.1,0,.2,.1,.2,.1l113.8,83.8c.1,.1,.2,.2,.2,.4,0,.1,0,.3-.1,.4l-104,113.7s-.2,.2-.4,.2c-.1,0-.3,0-.5-.3L6.43,116.1c-.1-.1-.1-.2-.1-.4L14.33,37.9c.1-.5,.1-1,0-1.4l-1.9-31.9c0-.1,0-.2,.2-.4-.1,0,.1-.1,.3-.1M12.93,.1c-2.6,0-4.7,2.2-4.5,4.8l1.9,31.9v.7L2.33,115.3c-.1,1,.1,2,.7,2.9l59.8,94.2c.9,1.4,2.4,2.1,3.9,2.1,1.2,0,2.5-.5,3.4-1.5l104-113.7c1.8-2,1.5-5.2-.7-6.8L59.73,8.7c-.6-.4-1.2-.7-1.9-.8L13.83,0c-.4,.1-.7,.1-.9,.1h0Z"/></g><g><path class="g" d="M11.73,705.9c-.7,0-1.4-.3-1.9-.8-.3-.3-.7-1-.7-1.9l6.3-142.4v-.6L4.23,356.2c0-.7,.2-1.4,.7-1.9l64.2-71.3,.6-.6c.5-.5,1.2-.8,1.9-.8,.9,0,1.8,.5,2.2,1.3l127.4,218.7c.6,1,.4,2.2-.3,3L30.13,689.2l-16.6,16c-.7,.5-1.3,.7-1.8,.7Z"/><path class="d" d="M71.53,283.5c.2,0,.4,0,.5,.3l127.4,218.7c.1,.2,.1,.5-.1,.7L28.73,687.7h0l-16.6,16c-.2,.2-.3,.2-.4,.2-.2,0-.4-.1-.5-.2-.1-.1-.1-.2-.1-.4l6.3-142.3v-.9L6.23,356.1c0-.2,0-.3,.1-.4l63.6-70.5h0l1.2-1.3c0-.2,.2-.4,.4-.4m0-4c-1.2,0-2.5,.5-3.4,1.5h0L3.33,352.9c-.8,.9-1.2,2.1-1.2,3.3l11.2,204v.4l-6.3,142.4c-.1,2.8,2.2,4.8,4.6,4.8,1.1,0,2.2-.4,3.1-1.3l16.6-16,.2-.2,170.7-184.5c1.4-1.5,1.6-3.7,.6-5.4l-127.3-218.6c-.9-1.5-2.4-2.3-4-2.3h0Z"/></g><g><path class="g" d="M360.23,703.4c-.9,0-1.8-.5-2.3-1.4l-96.7-179.7c-.6-1-.3-2.3,.5-3.1l74.1-68.5c.5-.4,1-.6,1.6-.6,.8,0,1.5,.3,2,.9l147.8,179.7c.5,.6,.7,1.4,.5,2.1-.1,.8-.6,1.4-1.3,1.8l-125,68.5c-.3,.2-.7,.3-1.2,.3h0Z"/><path class="d" d="M337.63,452.1c.1,0,.3,0,.4,.2l147.7,179.6c.1,.1,.2,.3,.1,.5,0,.2-.1,.3-.3,.4l-125,68.5c-.1,0-.2,.1-.3,.1s-.3,0-.5-.3l-96.7-179.7c-.1-.2-.1-.5,.1-.7l74-68.4h.1c.1-.1,.2-.2,.4-.2m0-4c-1.1,0-2.2,.4-3.1,1.2h0l-74,68.4c-1.5,1.4-1.9,3.7-.9,5.5l96.7,179.7c.8,1.5,2.4,2.4,4,2.4,.7,0,1.5-.2,2.2-.6l125-68.5c2.5-1.4,3.2-4.7,1.3-6.9l-147.7-179.6c-.9-1-2.2-1.6-3.5-1.6h0Z"/></g><g><path class="g" d="M924.63,678.5c-.5,0-1-.2-1.4-.5l-157-106.7c-.7-.4-1.1-1.2-1.1-2l-2.9-49c-.1-1,.5-2,1.5-2.5l159.8-75.8c.4-.2,.7-.3,1.1-.3,1.2,0,2.6,1,2.6,2.6v231.5c0,.9-.4,1.5-.8,1.8-.5,.7-1.2,.9-1.8,.9Z"/><path class="d" d="M924.63,443.9c.2,0,.6,.1,.6,.6v231.5c0,.5-.5,.6-.6,.6s-.2,0-.3-.1l-157-106.7c-.1-.1-.2-.3-.2-.4l-2.9-49c0-.2,.1-.4,.3-.5l159.8-75.8c.1-.2,.2-.2,.3-.2m0-4c-.6,0-1.3,.1-2,.4l-159.8,75.8c-1.7,.8-2.7,2.5-2.6,4.4l2.9,49c.1,1.4,.8,2.7,2,3.5l157,106.7c.8,.5,1.7,.8,2.6,.8,2.4,0,4.6-1.9,4.6-4.6v-231.4c-.2-2.7-2.3-4.6-4.7-4.6h0Z"/></g><g><path class="g" d="M446.33,249.3c-.5,0-1.1-.2-1.5-.5l-64.7-47.5c-.6-.4-.9-1-1-1.7s.1-1.4,.5-1.9L528.53,10.7c.5-.6,1.2-1,2-1h141.2c1.3,0,2.4,1,2.6,2.3l18.8,168.1c.1,1.3-.6,2.4-1.9,2.8l-244.2,66.3c-.2,.1-.5,.1-.7,.1Z"/><path class="d" d="M671.73,11.8c.3,0,.5,.2,.6,.5l18.8,168.1c0,.3-.1,.5-.4,.6l-244.2,66.4h-.1c-.1,0-.2,0-.3-.1l-64.7-47.5c-.1-.1-.2-.2-.2-.4,0-.1,0-.3,.1-.4L530.23,12.1c.1-.1,.3-.2,.4-.2h141.1m0-4.1h-141.2c-1.4,0-2.7,.6-3.6,1.7l-148.9,186.9c-1.6,2-1.2,5,.9,6.5l64.7,47.5c.8,.6,1.7,.9,2.7,.9,.4,0,.8-.1,1.2-.2l244.2-66.3c2.2-.6,3.6-2.7,3.3-4.9l-18.8-168.1c-.2-2.3-2.2-4-4.5-4h0Z"/></g><g><path class="g" d="M761.13,490.9c-1.1,0-2.4-.8-2.6-2.3l-30.8-278.7c-.1-1.3,.7-2.5,1.9-2.8l203.6-52.5c.2-.1,.4-.1,.7-.1,.7,0,1.4,.3,1.8,.8,.5,.5,.7,1.2,.7,1.9l-9.3,246.7c0,.9-.6,1.8-1.4,2.2l-163.6,84.5c-.2,.2-.6,.3-1,.3h0Z"/><path class="d" d="M934.03,156.5c.2,0,.3,.1,.4,.2,.2,.2,.2,.3,.2,.4l-9.3,246.7c0,.2-.1,.4-.3,.5l-163.6,84.5c-.1,0-.2,.1-.3,.1s-.5-.1-.6-.5l-30.7-278.7c0-.3,.2-.5,.4-.6l203.6-52.5q.1-.1,.2-.1m0-4c-.4,0-.8,0-1.2,.1l-203.6,52.5c-2.2,.6-3.6,2.7-3.4,4.9l30.8,278.7c.3,2.4,2.3,4.1,4.5,4.1,.7,0,1.4-.2,2.1-.5l163.6-84.5c1.5-.8,2.4-2.2,2.5-3.9l9.3-246.7c0-2.6-2.1-4.7-4.6-4.7h0Z"/></g><g><path class="g" d="M699.43,525c-.5,0-1-.1-1.4-.4l-378.2-252.7c-.6-.4-1-1.1-1.1-1.8s.1-1.5,.6-2l32.7-36.5c.5-.5,1.2-.9,1.9-.9,.5,0,1.1,.2,1.5,.5l74.2,53c1.1,.8,2.4,1.2,3.8,1.2,.5,0,1.1-.1,1.6-.2l255.9-64.4c.2-.1,.4-.1,.6-.1,1.3,0,2.4,1,2.5,2.3l.8,7h0l32,276.3c.1,1-.3,1.9-1.2,2.5l-25,15.9c-.3,.1-.7,.3-1.2,.3Z"/><path class="d" d="M691.53,222.7c.2,0,.5,.2,.6,.5l1.6,13.9h0l31.2,269.3c0,.2-.1,.4-.3,.5l-25,15.9c-.1,.1-.2,.1-.3,.1s-.2,0-.3-.1l-378.2-252.7c-.1-.1-.2-.2-.3-.4,0-.2,0-.3,.1-.4l32.7-36.5c.1-.2,.3-.2,.4-.2s.2,0,.3,.1l74.2,53c1.5,1,3.2,1.6,5,1.6,.7,0,1.4-.1,2.1-.3l255.9-64.4c.2,.1,.3,.1,.3,.1m0-4c-.4,0-.7,0-1.1,.1l-255.9,64.4c-.4,.1-.7,.1-1.1,.1-.9,0-1.9-.3-2.7-.9l-74.2-53c-.8-.6-1.7-.9-2.7-.9-1.3,0-2.5,.5-3.4,1.5l-32.7,36.5c-1.9,2.1-1.4,5.3,.9,6.8l378.2,252.7c.8,.5,1.7,.8,2.5,.8s1.7-.2,2.4-.7l25-15.9c1.5-.9,2.3-2.6,2.1-4.4l-32.7-283.1h0c-.3-2.3-2.3-4-4.6-4h0Z"/></g><g><path class="g" d="M606.53,793c-120.7-1.9-158.7-5.6-169.4-8.4-7-1.8-14.3-2.8-21.8-2.8-13.4,0-23.4,3-26.2,3.9-.2,.1-.5,.1-.8,.1l-70.4-2.2c-1.4,0-2.2-1-2.4-1.9s-.1-2.1,1.1-2.8l189.6-117.6c.4-.3,.9-.4,1.4-.4,.8,0,1.5,.4,2,1l99,127c.6,.8,.7,1.8,.3,2.7-.5,.9-1.4,1.4-2.4,1.4h0Z"/><path class="d" d="M507.53,662.9c.1,0,.3,0,.5,.2l99,127c.1,.1,.2,.3,.1,.6-.2,.3-.4,.3-.5,.3h0c-126.8-2-160.3-6.1-168.9-8.3-7.2-1.9-14.7-2.8-22.3-2.8-13.7,0-24,3.1-26.8,4h-.2l-70.4-2.2c-.2,0-.4,0-.5-.4s.1-.5,.2-.6l189.6-117.6c0-.2,.1-.2,.2-.2h0m0-4c-.8,0-1.7,.2-2.4,.7l-189.6,117.6c-3.8,2.4-2.3,8.3,2.3,8.4l70.4,2.2h.1c.5,0,1-.1,1.4-.2,2.7-.9,12.5-3.8,25.6-3.8,6.4,0,13.7,.7,21.3,2.7,23.1,6.1,136,7.9,169.9,8.5h.1c3.8,0,5.9-4.4,3.6-7.4l-99-127c-1-1.1-2.3-1.7-3.7-1.7h0Z"/></g><g><path class="g" d="M711.53,796.7l-21.2-1.3h-.7l-27.3,1.2c-.8,0-1.6-.4-2.1-1l-59.5-79.4c-.1-.1-.1-.2-.2-.2l-49-81.9c-.4-.6-.5-1.3-.3-2s.7-1.3,1.3-1.6l129.8-67.1c.4-.2,.8-.3,1.2-.3,.5,0,1.1,.2,1.5,.5l60.5,43.9c.6,.5,1,1.2,1.1,2l4.7,134.1c0,.2,0,.5,.1,.7l6.1,42.8c.2,1.3-.7,2.6-1.9,2.9l-43.4,6.7h-.7Z"/><path class="d" d="M683.53,565c.1,0,.2,0,.3,.1l60.5,43.9c.1,.1,.2,.3,.2,.4l4.7,134.1c0,.3,0,.6,.1,1l6.1,42.9c0,.3-.1,.5-.4,.6h-.1l-43.2,6.7h-.1l-21.2-1.3h-.8l-27.3,1.2c-.2,0-.3-.1-.5-.2l-59.5-79.4-.1-.1-49-81.9c-.1-.1-.1-.3-.1-.4s.1-.3,.3-.4l129.8-67.1c.1,0,.2-.1,.3-.1m0-4c-.7,0-1.4,.2-2.1,.5l-129.8,67.2c-2.3,1.2-3.2,4.1-1.8,6.4l49,81.9c.1,.1,.2,.3,.3,.4l59.5,79.4c.9,1.2,2.2,1.8,3.7,1.8h.2l27.2-1.2h.4l21.2,1.3h.3c.2,0,.5,0,.7-.1l43.2-6.7h0c2.5-.4,4.2-2.7,3.8-5.2l-6.1-42.9v-.5l-4.7-134.1c0-1.4-.7-2.7-1.9-3.5l-60.5-43.9c-.7-.5-1.6-.8-2.6-.8h0Z"/></g><g><path class="f" d="M538.83,609.8c-.9,0-1.7-.5-2.2-1.2l-9.7-16.2c-.3-.5-.6-.9-.9-1.2l-121.5-124.9c-.1-.1-.3-.3-.4-.5l-55.2-95c-1.2-2-3.3-3.3-5.7-3.3-1.7,0-3.4,.7-4.6,1.9l-104.2,102.3c-.5,.5-1.1,.7-1.8,.7-1,0-1.8-.5-2.3-1.4l-31-59.1c-.5-.9-.4-2.1,.3-2.9l93.2-108.8c.5-.6,1.2-.9,2-.9,.5,0,1,.1,1.4,.4l365.3,241.8c.8,.5,1.2,1.3,1.1,2.3,0,.9-.5,1.7-1.4,2.1l-121.3,63.6c-.3,.2-.7,.3-1.1,.3Z"/><path class="d" d="M294.73,301.4c.1,0,.2,0,.3,.1l365.3,241.8c.1,0,.3,.2,.2,.5,0,.3-.2,.4-.3,.5l-121.1,63.4h-.3c-.1,0-.3,0-.5-.3l-9.8-16.3c-.4-.6-.8-1.1-1.2-1.6l-121.5-124.9-.1-.1-55.2-95c-1.5-2.6-4.4-4.3-7.4-4.3-2.3,0-4.4,.9-6,2.5l-104.2,102.3s-.2,.2-.4,.2c-.1,0-.4,0-.5-.3l-31-59.1c-.1-.2-.1-.5,.1-.6l93.2-108.8c.1,0,.3,0,.4,0h0m0-4c-1.3,0-2.6,.5-3.5,1.6l-93.2,108.8c-1.2,1.4-1.4,3.4-.6,5.1l31,59.1c.8,1.6,2.4,2.4,4,2.4,1.1,0,2.3-.4,3.2-1.3l104.3-102.4c.9-.9,2.1-1.3,3.2-1.3,1.6,0,3.1,.8,4,2.3l55.2,95c.2,.3,.4,.6,.7,.9l121.5,124.9c.2,.2,.5,.5,.6,.8l9.7,16.2c.9,1.4,2.4,2.2,3.9,2.2,.7,0,1.4-.2,2.1-.5h0l121.2-63.5c3.1-1.6,3.3-5.9,.4-7.8l-365.3-241.8c-.7-.5-1.5-.7-2.4-.7h0Z"/></g><g><path class="f" d="M177.93,385.2c-.9,0-1.7-.4-2.2-1.2l-79.5-124.3c-.6-1-.5-2.3,.3-3.1l118.8-127.9c.5-.4,1.1-.7,1.8-.7,.5,0,1,.1,1.4,.4l110.3,73.2c.6,.4,1,1,1.1,1.8,.1,.7-.1,1.4-.6,2l-149.5,178.9c-.4,.6-1.1,.9-1.9,.9h0Z"/><path class="d" d="M217.13,130c.1,0,.2,0,.3,.1l110.3,73.2c.1,.1,.2,.2,.2,.4s0,.3-.1,.4l-149.5,178.9c0,.1-.2,.2-.4,.2-.1,0-.3,0-.5-.3l-79.5-124.3c-.1-.2-.1-.5,.1-.7l118.6-127.8,.1-.1h.4m0-4c-1.2,0-2.5,.5-3.3,1.5h0l-118.6,127.8c-1.4,1.5-1.6,3.8-.5,5.6l79.5,124.3c.9,1.4,2.4,2.1,3.8,2.1,1.3,0,2.6-.5,3.5-1.6l149.4-179c1.7-2.1,1.3-5.2-1-6.7l-110.3-73.2c-.8-.5-1.6-.8-2.5-.8h0Z"/></g><g><path class="f" d="M196.13,70.7c-.5,0-1-.2-1.5-.5l-61.6-43.7c-1.4-1-1.1-2.4-1-2.9,.3-.9,1-1.8,2.4-1.8h1.4l102.2-7.4h.2c1,0,1.9,.6,2.3,1.5,.4,.9,.3,1.9-.3,2.7l-42.1,51c-.5,.8-1.3,1.1-2,1.1Z"/><path class="d" d="M238.33,12.6v4c.1,0,.3,0,.5,.3,.1,.3,0,.5-.1,.6l-42.1,51c-.1,.2-.3,.2-.4,.2s-.2,0-.3-.1l-61.7-43.7c-.1-.1-.3-.2-.2-.6,.1-.4,.4-.4,.5-.4h1.5l102.2-7.4h.1v-3.9m0,0h-.4l-102.2,7.4h-1.3c-4.3,0-6.3,5.7-2.6,8.3l61.7,43.7c.8,.6,1.7,.8,2.6,.8,1.3,0,2.6-.6,3.5-1.7l42.1-51c2.5-3,.3-7.5-3.4-7.5h0Z"/></g><g><path class="f" d="M6.73,275.1c-1.3,0-2.6-1-2.6-2.6v-87c0-1.7,1.3-2.6,2.6-2.6,.6,0,1.5,.2,2.1,1.2l34.4,51.8c.7,1,.5,2.4-.3,3.2l-34.4,35.1c-.6,.7-1.3,.9-1.8,.9Z"/><path class="d" d="M6.73,184.9c.2,0,.3,0,.4,.3l34.4,51.8c.1,.2,.1,.5-.1,.7L7.03,272.8c-.2,.2-.3,.2-.4,.2,0,0-.6,0-.6-.6v-83h0v-4c.1-.4,.6-.5,.7-.5m0-4c-2.3,0-4.6,1.8-4.6,4.6h0v87c0,2.8,2.3,4.6,4.6,4.6,1.1,0,2.3-.4,3.2-1.4l34.4-35.1c1.5-1.5,1.7-3.9,.5-5.7L10.43,183.1c-.9-1.5-2.3-2.2-3.7-2.2h0Z"/></g><g><path class="f" d="M4.53,792.9c-.7,0-1.4-.3-1.9-.9s-.7-1.3-.6-2l1.8-16,.1-.7c.1-.6,.3-1.1,.7-1.5l223.5-222.2c.5-.5,1.1-.7,1.8-.7,.9,0,1.7,.5,2.2,1.3l97.9,164.9c.4,.6,.5,1.3,.3,2s-.6,1.2-1.2,1.6l-113.8,62.3c-.4,.2-.8,.3-1.2,.3h-.2l-68.1-4.8h-.4c-.6,0-1.1,.1-1.7,.2l-43.7,11.5c-.2,0-.3,.1-.5,.1l-94.7,4.7-.3-.1Z"/><path class="d" d="M229.93,551c.1,0,.4,0,.5,.3l97.9,164.9c.1,.2,.1,.3,.1,.4,0,.2-.1,.3-.3,.3l-113.8,62.3c-.1,0-.2,.1-.3,.1h0l-68.1-4.8h-.6c-.7,0-1.5,.1-2.2,.3l-43.6,11.5h-.2l-94.8,4.7c-.2,0-.3-.1-.4-.2s-.2-.3-.1-.4l1.8-15.3h0l.1-1.3c0-.1,.1-.2,.2-.3l223.5-222.2c0-.2,.1-.3,.3-.3m0-4c-1.1,0-2.3,.4-3.2,1.3L3.23,770.5c-.7,.7-1.2,1.7-1.3,2.7h0L.03,789.8c-.3,2.7,1.8,5.1,4.5,5.1h.2l94.7-4.7c.3,0,.6-.1,.9-.1l43.7-11.5c.4-.1,.8-.2,1.2-.2h.3l68.1,4.8h.3c.8,0,1.5-.2,2.2-.6l113.8-62.3c2.3-1.2,3.1-4.1,1.7-6.3l-97.9-164.9c-.7-1.4-2.2-2.1-3.8-2.1h0Z"/></g><g><path class="f" d="M860.63,795.2l-36.4-2.1h-.1l-34.1-4.6c-1.2-.2-2.1-1.1-2.2-2.3l-17.7-168.7c-.1-.9,.3-1.6,.6-2,.5-.5,1.2-.9,1.9-.9,.5,0,1,.1,1.4,.4l151.7,99.9c.7,.5,1.2,1.3,1.2,2.2l-1.8,76.2v.7c0,1.4-1.2,2.5-2.6,2.5l-61.9-1.3Z"/><path class="d" d="M772.83,616.7c.1,0,.2,0,.3,.1l151.7,99.9c.2,.1,.3,.3,.3,.5l-1.8,75.4h0v1.5c0,.3-.3,.5-.6,.5l-62-1.4-36.3-2.1h0l-34-4.6c-.3,0-.5-.2-.5-.5l-17.7-168.7c0-.2,0-.3,.1-.4,.2-.1,.4-.2,.5-.2m0-4c-2.5,0-4.9,2.2-4.6,5.1l17.7,168.7c.2,2.1,1.8,3.8,3.9,4l34,4.6h.3l36.4,2.1,62,1.4h.1c2.5,0,4.5-2,4.6-4.5h0l1.8-76.9c0-1.6-.7-3.1-2.1-3.9l-151.7-99.9c-.7-.4-1.5-.7-2.4-.7h0Z"/></g><g><path class="f" d="M349.53,180.2c-.5,0-1.1-.2-1.5-.5l-105.8-76.1c-.6-.4-1-1.1-1.1-1.8-.1-.7,.2-1.5,.7-2L321.93,14.5c.5-.4,1.1-.7,1.8-.7h163.4c1,0,1.9,.6,2.3,1.5s.3,2-.4,2.7l-137.5,161.3c-.5,.6-1.2,.9-2,.9h0Z"/><path class="d" d="M487.13,15.8c.1,0,.4,0,.5,.3s0,.5-.1,.6l-137.6,161.2c-.1,.2-.3,.2-.4,.2s-.2,0-.3-.1l-105.8-76.1c-.1-.1-.2-.2-.2-.4s0-.3,.1-.4L323.33,16l.1-.1c.1-.1,.2-.1,.4-.1h163.3m0-4h-163.4c-1.3,0-2.5,.5-3.3,1.4h0l-80,85.1c-1.9,2-1.6,5.2,.7,6.8l105.8,76.1c.8,.6,1.7,.9,2.7,.9,1.3,0,2.6-.5,3.5-1.6L490.73,19.3c2.4-2.9,.3-7.5-3.6-7.5h0Z"/></g><g><path class="f" d="M726.03,173.8c-1.3,0-2.4-1-2.6-2.3l-5.5-59.5c0-.4,0-.8,.2-1.2l14-34.5c.5-1.1,.6-2.4,.4-3.6l-9.7-59.6c-.1-.8,.1-1.5,.6-2.1s1.2-.9,2-.9h.2l199.3,14.2c1.3,.1,2.3,1.2,2.4,2.5l.1,1.9h0l2.5,92.2c0,1.2-.8,2.3-1.9,2.6l-201.4,50.2c-.2,.1-.4,.1-.6,.1Z"/><path class="d" d="M725.33,12.2h0l199.4,14.2c.3,0,.5,.3,.5,.6l.1,2.5,2.5,91.6c0,.3-.2,.5-.4,.6l-201.3,50.2h-.1c-.2,0-.5-.2-.6-.5l-5.5-59.5v-.3l14-34.5c.6-1.5,.8-3.1,.5-4.6l-9.7-59.6c0-.2,0-.3,.1-.5,.2-.1,.3-.2,.5-.2m0-4c-2.8,0-5,2.5-4.5,5.3l9.7,59.6c.1,.8,0,1.7-.3,2.5l-14,34.5c-.3,.7-.4,1.4-.3,2.1l5.5,59.5c.2,2.4,2.3,4.1,4.5,4.1,.4,0,.7,0,1.1-.1l201.3-50.2c2.1-.5,3.5-2.4,3.5-4.6l-2.6-94.1h0c-.1-2.4-1.9-4.3-4.2-4.4l-199.3-14.2h-.4Z"/></g></g><path class="c" d="M141.83,168l2.6,2.4,2.3-2.5-2.5-2.4-2.4,2.5Zm-70.7,77l-2.6-2.4-1.7,1.9,1.3,2.2,3-1.7Zm56-86.1c1.4,1.3,3.6,1.3,4.9-.1s1.3-3.6-.1-4.9l-4.8,5Zm13,2.7c-1.4-1.3-3.6-1.3-4.9,.1s-1.3,3.6,.1,4.9l4.8-5Zm-6.8,10.5c-1.3,1.4-1.2,3.6,.2,4.9,1.4,1.3,3.6,1.2,4.9-.2l-5.1-4.7Zm-6.6,17.5c1.3-1.4,1.2-3.6-.2-4.9-1.4-1.3-3.6-1.2-4.9,.2l5.1,4.7Zm-16.9,8.1c-1.3,1.4-1.2,3.6,.2,4.9,1.4,1.3,3.6,1.2,4.9-.2l-5.1-4.7Zm-6.7,17.6c1.3-1.4,1.2-3.6-.2-4.9-1.4-1.3-3.6-1.2-4.9,.2l5.1,4.7Zm-16.9,8.1c-1.3,1.4-1.2,3.6,.2,4.9s3.6,1.2,4.9-.2l-5.1-4.7Zm-6.6,17.6c1.3-1.4,1.2-3.6-.2-4.9-1.4-1.3-3.6-1.2-4.9,.2l5.1,4.7Zm-6.1,15.1c1,1.7,3.1,2.2,4.8,1.3,1.7-1,2.2-3.1,1.3-4.8l-6.1,3.5Zm16.9,15c-1-1.7-3.1-2.2-4.8-1.3-1.7,1-2.2,3.1-1.3,4.8l6.1-3.5Zm4.8,22.1c1,1.7,3.1,2.2,4.8,1.3,1.7-1,2.2-3.1,1.3-4.8l-6.1,3.5Zm16.9,15c-1-1.7-3.1-2.2-4.8-1.3-1.7,1-2.2,3.1-1.3,4.8l6.1-3.5Zm4.8,22.1c1,1.7,3.1,2.2,4.8,1.3,1.7-1,2.2-3.1,1.3-4.8l-6.1,3.5Zm16.9,15.1c-1-1.7-3.1-2.2-4.8-1.3-1.7,1-2.2,3.1-1.3,4.8l6.1-3.5Zm-10.8-190.3l4.1,3.9,4.8-5.1-4.1-3.9-4.8,5.1Zm12.3,11.6l4.1,3.9,4.8-5.1-4.1-3.9-4.8,5.1Zm3.9-1l-5.9,6.4,5.2,4.7,5.9-6.4-5.2-4.7Zm-17.7,19.2l-11.8,12.8,5.2,4.7,11.8-12.8-5.2-4.7Zm-23.5,25.7l-11.8,12.8,5.2,4.7,11.8-12.8-5.2-4.7Zm-23.6,25.7l-5.9,6.4,5.2,4.7,5.9-6.4-5.2-4.7Zm-6.3,10.5l5.4,9.3,6-3.5-5.4-9.3-6,3.5Zm16.3,27.8l10.9,18.6,6-3.5-10.9-18.6-6,3.5Zm21.7,37.2l10.9,18.6,6-3.5-10.9-18.6-6,3.5Zm21.7,37.1l5.4,9.3,6-3.5-5.4-9.3-6,3.5Z"/><path class="f" d="M23.23,114.6c2.3,2.1,5.8,3.1,10.4,3.1,3.3,0,5.9-.8,7.8-2.3,1.9-1.6,2.8-3.6,2.8-5.9,0-3.1-1.7-5.3-5.2-6.7l-1.5-.5c-.6-.3-1.2-.4-1.6-.6l-1.3-.6c-.9-.5-1.4-1-1.4-1.6,0-.8,1.1-1.4,3.2-1.4,2.3,0,5.3,.9,7.3,3.1l1.3-6.4c-2.1-1.8-5-2.8-8.7-2.8-2.8,0-5.2,.8-7,2.3s-2.7,3.4-2.7,5.6c0,3.3,1.9,5.6,5.6,7,3.9,1.4,5.3,2.1,5.3,3,0,1-1.2,1.8-3.9,1.8-3.6,0-6.6-1.2-8.9-3.5l-1.5,6.4Z"/><path class="f" d="M55.43,117.4l3.9-18.9h6.6l1.3-6.2h-20.2l-1.3,6.2h6.8l-3.9,18.9h6.8Z"/><path class="f" d="M67.73,114.1h10.7l.9,3.3h6.6l-8.5-26.8-19.3,26.8h7.2l2.4-3.3Zm7.7-11.2l1.7,6h-5.9l4.2-6Z"/><path class="f" d="M94.13,117.4l1.6-7.8h3l3.5,7.8h7.5l-4.1-8.7c1.7-.8,3.1-2,4.1-3.6s1.5-3.3,1.5-5.1c0-2.3-.8-4.1-2.3-5.5-1.5-1.5-3.5-2.2-5.9-2.2h-10.7l-5.1,25.1h6.9Zm3.9-18.9h3.7c1.5,0,2.6,1,2.6,2.4,0,1.6-1.4,3.2-3.1,3.2h-4.4l1.2-5.6Z"/><path class="f" d="M121.93,117.4l3.9-18.9h6.6l1.3-6.2h-20.2l-1.3,6.2h6.8l-3.9,18.9h6.8Z"/><path class="e" d="M81.33,489.2c3.8,0,7.1-.7,9.9-1.9l2.6-12.8c-2.7,.9-5.1,1.3-7.2,1.3-2.3,0-3.5-.6-3.5-1.8,0-.7,.3-1.2,.8-1.7,.7-.6,3-1.6,6.9-3.1,9.2-3.5,13.8-8.9,13.8-16.4,0-4.1-1.9-7.6-5.7-10.3-3.7-2.7-8.5-4-14.4-4s-10.8,1.4-15,4.3l-3.4,16.3c5.6-3,10.8-4.5,15.9-4.5,2.5,0,3.7,.5,3.7,1.5,0,.6-1.2,1.2-2.8,1.8l-3.5,1.2c-9.2,3.6-13.8,9-13.8,16.6,0,3.9,1.4,7.1,4.3,9.6,3.1,2.7,6.9,3.9,11.4,3.9Zm-14.7,11.2c0,4.5,3.5,7.7,8.4,7.7,2.8,0,5.2-1,7.1-2.9,2-2,3-4.2,3-6.8,0-4.6-3.5-7.9-8.4-7.9-2.7,0-5,1-7,3s-3.1,4.3-3.1,6.9Z"/><path class="e" d="M365.33,589.9c3.8,0,7.1-.7,9.9-1.9l2.6-12.8c-2.7,.9-5.1,1.3-7.2,1.3-2.3,0-3.5-.6-3.5-1.8,0-.7,.3-1.2,.8-1.7,.7-.6,3-1.6,6.9-3.1,9.2-3.5,13.8-8.9,13.8-16.4,0-4.1-1.9-7.6-5.7-10.3-3.7-2.7-8.5-4-14.4-4s-10.8,1.4-15,4.3l-3.4,16.3c5.6-3,10.8-4.5,15.9-4.5,2.5,0,3.7,.5,3.7,1.5,0,.6-1.2,1.2-2.8,1.8l-3.5,1.2c-9.2,3.6-13.8,9-13.8,16.6,0,3.9,1.4,7.1,4.3,9.6,3.1,2.7,6.9,3.9,11.4,3.9Zm-14.7,11.2c0,4.5,3.5,7.7,8.4,7.7,2.8,0,5.2-1,7.1-2.9,2-2,3-4.2,3-6.8,0-4.6-3.5-7.9-8.4-7.9-2.7,0-5,1-7,3-2.1,2-3.1,4.3-3.1,6.9Z"/><path class="e" d="M483.33,748.9c3.8,0,7.1-.7,9.9-1.9l2.6-12.8c-2.7,.9-5.1,1.3-7.2,1.3-2.3,0-3.5-.6-3.5-1.8,0-.7,.3-1.2,.8-1.7,.7-.6,3-1.6,6.9-3.1,9.2-3.5,13.8-8.9,13.8-16.4,0-4.1-1.9-7.6-5.7-10.3-3.7-2.7-8.5-4-14.4-4s-10.8,1.4-15,4.3l-3.4,16.3c5.6-3,10.8-4.5,15.9-4.5,2.5,0,3.7,.5,3.7,1.5,0,.6-1.2,1.2-2.8,1.8l-3.5,1.2c-9.2,3.6-13.8,9-13.8,16.6,0,3.9,1.4,7.1,4.3,9.6s6.9,3.9,11.4,3.9Zm-14.7,11.2c0,4.5,3.5,7.7,8.4,7.7,2.8,0,5.2-1,7.1-2.9,2-2,3-4.2,3-6.8,0-4.6-3.5-7.9-8.4-7.9-2.7,0-5,1-7,3s-3.1,4.3-3.1,6.9Z"/><path class="e" d="M664.33,687.9c3.8,0,7.1-.7,9.9-1.9l2.6-12.8c-2.7,.9-5.1,1.3-7.2,1.3-2.3,0-3.5-.6-3.5-1.8,0-.7,.3-1.2,.8-1.7,.7-.6,3-1.6,6.9-3.1,9.2-3.5,13.8-8.9,13.8-16.4,0-4.1-1.9-7.6-5.7-10.3-3.7-2.7-8.5-4-14.4-4s-10.8,1.4-15,4.3l-3.4,16.3c5.6-3,10.8-4.5,15.9-4.5,2.5,0,3.7,.5,3.7,1.5,0,.6-1.2,1.2-2.8,1.8l-3.5,1.2c-9.2,3.6-13.8,9-13.8,16.6,0,3.9,1.4,7.1,4.3,9.6,3.1,2.7,6.9,3.9,11.4,3.9Zm-14.7,11.2c0,4.5,3.5,7.7,8.4,7.7,2.8,0,5.2-1,7.1-2.9,2-2,3-4.2,3-6.8,0-4.6-3.5-7.9-8.4-7.9-2.7,0-5,1-7,3-2.1,2-3.1,4.3-3.1,6.9Z"/><path class="e" d="M853.33,567.9c3.8,0,7.1-.7,9.9-1.9l2.6-12.8c-2.7,.9-5.1,1.3-7.2,1.3-2.3,0-3.5-.6-3.5-1.8,0-.7,.3-1.2,.8-1.7,.7-.6,3-1.6,6.9-3.1,9.2-3.5,13.8-8.9,13.8-16.4,0-4.1-1.9-7.6-5.7-10.3-3.7-2.7-8.5-4-14.4-4s-10.8,1.4-15,4.3l-3.4,16.3c5.6-3,10.8-4.5,15.9-4.5,2.5,0,3.7,.5,3.7,1.5,0,.6-1.2,1.2-2.8,1.8l-3.5,1.2c-9.2,3.6-13.8,9-13.8,16.6,0,3.9,1.4,7.1,4.3,9.6,3.1,2.7,6.9,3.9,11.4,3.9Zm-14.7,11.2c0,4.5,3.5,7.7,8.4,7.7,2.8,0,5.2-1,7.1-2.9,2-2,3-4.2,3-6.8,0-4.6-3.5-7.9-8.4-7.9-2.7,0-5,1-7,3-2.1,2-3.1,4.3-3.1,6.9Z"/><path class="e" d="M835.33,331.9c3.8,0,7.1-.7,9.9-1.9l2.6-12.8c-2.7,.9-5.1,1.3-7.2,1.3-2.3,0-3.5-.6-3.5-1.8,0-.7,.3-1.2,.8-1.7,.7-.6,3-1.6,6.9-3.1,9.2-3.5,13.8-8.9,13.8-16.4,0-4.1-1.9-7.6-5.7-10.3-3.7-2.7-8.5-4-14.4-4s-10.8,1.4-15,4.3l-3.4,16.3c5.6-3,10.8-4.5,15.9-4.5,2.5,0,3.7,.5,3.7,1.5,0,.6-1.2,1.2-2.8,1.8l-3.5,1.2c-9.2,3.6-13.8,9-13.8,16.6,0,3.9,1.4,7.1,4.3,9.6,3.1,2.7,6.9,3.9,11.4,3.9Zm-14.7,11.2c0,4.5,3.5,7.7,8.4,7.7,2.8,0,5.2-1,7.1-2.9,2-2,3-4.2,3-6.8,0-4.6-3.5-7.9-8.4-7.9-2.7,0-5,1-7,3-2.1,2-3.1,4.3-3.1,6.9Z"/><path class="e" d="M598.33,364.9c3.8,0,7.1-.7,9.9-1.9l2.6-12.8c-2.7,.9-5.1,1.3-7.2,1.3-2.3,0-3.5-.6-3.5-1.8,0-.7,.3-1.2,.8-1.7,.7-.6,3-1.6,6.9-3.1,9.2-3.5,13.8-8.9,13.8-16.4,0-4.1-1.9-7.6-5.7-10.3-3.7-2.7-8.5-4-14.4-4s-10.8,1.4-15,4.3l-3.4,16.3c5.6-3,10.8-4.5,15.9-4.5,2.5,0,3.7,.5,3.7,1.5,0,.6-1.2,1.2-2.8,1.8l-3.5,1.2c-9.2,3.6-13.8,9-13.8,16.6,0,3.9,1.4,7.1,4.3,9.6,3.1,2.7,6.9,3.9,11.4,3.9Zm-14.7,11.2c0,4.5,3.5,7.7,8.4,7.7,2.8,0,5.2-1,7.1-2.9,2-2,3-4.2,3-6.8,0-4.6-3.5-7.9-8.4-7.9-2.7,0-5,1-7,3-2.1,2-3.1,4.3-3.1,6.9Z"/><path class="e" d="M565.33,121.9c3.8,0,7.1-.7,9.9-1.9l2.6-12.8c-2.7,.9-5.1,1.3-7.2,1.3-2.3,0-3.5-.6-3.5-1.8,0-.7,.3-1.2,.8-1.7,.7-.6,3-1.6,6.9-3.1,9.2-3.5,13.8-8.9,13.8-16.4,0-4.1-1.9-7.6-5.7-10.3-3.7-2.7-8.5-4-14.4-4s-10.8,1.4-15,4.3l-3.4,16.3c5.6-3,10.8-4.5,15.9-4.5,2.5,0,3.7,.5,3.7,1.5,0,.6-1.2,1.2-2.8,1.8l-3.5,1.2c-9.2,3.6-13.8,9-13.8,16.6,0,3.9,1.4,7.1,4.3,9.6s6.9,3.9,11.4,3.9Zm-14.7,11.2c0,4.5,3.5,7.7,8.4,7.7,2.8,0,5.2-1,7.1-2.9,2-2,3-4.2,3-6.8,0-4.6-3.5-7.9-8.4-7.9-2.7,0-5,1-7,3s-3.1,4.3-3.1,6.9Z"/><g class="b"><circle class="c" cx="150.23" cy="377.1" r="53"/></g><g class="h"><circle class="c" cx="150.23" cy="377.1" r="38.2"/></g><g><circle class="c" cx="151.03" cy="377.9" r="17"/><path class="d" d="M151.03,396.9c-10.5,0-19-8.5-19-19s8.5-19,19-19,19,8.5,19,19-8.5,19-19,19Zm0-34c-8.2,0-15,6.7-15,15s6.7,15,15,15,15-6.7,15-15-6.7-15-15-15Z"/></g></svg>